<?xml version="1.0" encoding="UTF-8" standalone="no"?>
<!DOCTYPE svg PUBLIC "-//W3C//DTD SVG 1.0//EN" "http://www.w3.org/TR/2001/REC-SVG-20010904/DTD/svg10.dtd">
<!-- Created with Inkscape (http://www.inkscape.org/) by Steadfast-->
<svg xmlns:svg="http://www.w3.org/2000/svg" xmlns="http://www.w3.org/2000/svg" version="1.0" width="900" height="300" id="svg2616">
  <defs id="defs2618">
    <clipPath id="clipPath125">
      <path d="M 455.872,24.874 L 567.455,24.874 L 567.455,64.761 L 455.872,64.761 L 455.872,24.874 z" id="path127"/>
    </clipPath>
  </defs>
  <g id="layer1">
    <g transform="matrix(7.9166022,0,0,-7.9166022,-3598.9573,514.40714)" id="g121">
      <g clip-path="url(#clipPath125)" id="g123">
        <g transform="translate(469.4743,47.3088)" id="g129">
          <path d="M 0,0 C 0.004,-0.003 0.119,0.218 0.213,0.376 C 0.97,1.656 5.567,13.048 6.693,15.731 C 5.17,16.233 3.544,16.508 1.853,16.508 C -6.683,16.508 -13.603,9.592 -13.603,1.061 C -13.603,-0.346 -13.411,-1.707 -13.058,-3.002 C -12.088,-2.371 -6.173,1.72 -6.165,1.691 C -5.217,-1.795 -2.027,-3.593 0,0 M 13.664,11.019 C 12.503,8.273 8.595,-0.937 7.547,-3.01 C 5.483,-6.762 2.185,-10.263 -2.283,-10.464 C -7.527,-10.7 -10.304,-8.699 -11.799,-6.179 C -9.203,-11.061 -4.064,-14.385 1.853,-14.385 C 10.389,-14.385 17.308,-7.469 17.308,1.061 C 17.308,4.857 15.935,8.33 13.664,11.019" id="path131" style="fill:#00567e;fill-opacity:1;fill-rule:nonzero;stroke:none"/>
        </g>
        <g transform="translate(499.6361,55.7243)" id="g133">
          <path d="M 0,0 L 0,-12.409 C 0,-15.283 -0.093,-15.984 -0.561,-16.848 C -1.285,-18.134 -2.734,-18.718 -5.234,-18.718 C -5.421,-18.718 -5.725,-18.718 -6.122,-18.695 L -6.122,-16.194 L -5.772,-16.194 L -5.608,-16.194 C -4.253,-16.171 -3.528,-15.96 -3.248,-15.47 C -3.014,-15.119 -2.991,-14.769 -2.991,-12.479 L -2.991,0 L 0,0" id="path135" style="fill:#00567e;fill-opacity:1;fill-rule:nonzero;stroke:none"/>
        </g>
        <g transform="translate(513.7736,58.7857)" id="g137">
          <path d="M 0,0 C 0,-0.958 -0.771,-1.73 -1.706,-1.73 C -2.664,-1.73 -3.435,-0.958 -3.435,-0.024 C -3.435,0.957 -2.664,1.706 -1.706,1.706 C -0.771,1.706 0,0.935 0,0 M -4.346,0 C -4.346,-0.958 -5.118,-1.73 -6.052,-1.73 C -7.011,-1.73 -7.781,-0.958 -7.781,-0.024 C -7.781,0.957 -7.011,1.706 -6.052,1.706 C -5.118,1.706 -4.346,0.935 -4.346,0 M -7.057,-3.061 L -7.057,-12.011 C -7.057,-13.577 -7.011,-14.092 -6.777,-14.699 C -6.356,-15.75 -5.305,-16.358 -3.879,-16.358 C -2.22,-16.358 -1.168,-15.611 -0.841,-14.208 C -0.724,-13.717 -0.701,-13.25 -0.701,-12.011 L -0.701,-3.061 L 2.29,-3.061 L 2.29,-12.058 C 2.29,-14.302 2.173,-15.073 1.683,-16.054 C 0.794,-17.9 -1.262,-18.952 -3.879,-18.952 C -6.496,-18.952 -8.553,-17.9 -9.441,-16.054 C -9.932,-15.073 -10.048,-14.302 -10.048,-12.058 L -10.048,-3.061 L -7.057,-3.061" id="path139" style="fill:#00567e;fill-opacity:1;fill-rule:nonzero;stroke:none"/>
        </g>
        <g transform="translate(523.3077,55.7243)" id="g141">
          <path d="M 0,0 L 0,-13.04 L 6.753,-13.04 L 6.753,-15.587 L -3.061,-15.587 L -3.061,0 L 0,0 z" id="path143" style="fill:#00567e;fill-opacity:1;fill-rule:nonzero;stroke:none"/>
        </g>
        <path d="M 532.865,55.724 L 535.856,55.724 L 535.856,40.137 L 532.865,40.137 L 532.865,55.724 z" id="path145" style="fill:#00567e;fill-opacity:1;fill-rule:nonzero;stroke:none"/>
        <g transform="translate(548.9192,50.6531)" id="g147">
          <path d="M 0,0 C -0.281,1.8 -1.309,2.781 -2.898,2.781 C -5.211,2.781 -6.66,0.654 -6.66,-2.757 C -6.66,-6.169 -5.211,-8.249 -2.875,-8.249 C -1.052,-8.249 -0.07,-7.104 0.117,-4.744 L 2.781,-4.744 C 2.594,-8.763 0.724,-10.819 -2.758,-10.819 C -7.034,-10.819 -9.768,-7.665 -9.768,-2.781 C -9.768,0.07 -8.927,2.291 -7.291,3.763 C -6.099,4.814 -4.581,5.375 -2.898,5.375 C 0.42,5.375 2.384,3.459 2.594,0 L 0,0" id="path149" style="fill:#00567e;fill-opacity:1;fill-rule:nonzero;stroke:none"/>
        </g>
        <g transform="translate(563.9443,49.5083)" id="g151">
          <path d="M 0,0 L 0,6.216 L 2.991,6.216 L 2.991,-9.371 L 0,-9.371 L 0,-2.477 L -6.192,-2.477 L -6.192,-9.371 L -9.183,-9.371 L -9.183,6.216 L -6.192,6.216 L -6.192,0 L 0,0 z" id="path153" style="fill:#00567e;fill-opacity:1;fill-rule:nonzero;stroke:none"/>
        </g>
        <g transform="translate(496.0333,31.0348)" id="g155">
          <path d="M 0,0 L 0,-0.465 L -1.931,-0.465 L -1.931,-2.704 L -2.467,-2.704 L -2.467,2.067 L 0.15,2.067 L 0.15,1.602 L -1.931,1.602 L -1.931,0 L 0,0 z" id="path157" style="fill:#58585a;fill-opacity:1;fill-rule:nonzero;stroke:none"/>
        </g>
        <g transform="translate(497.5717,30.7487)" id="g159">
          <path d="M 0,0 C 0,-1.238 0.537,-2.024 1.373,-2.024 C 2.196,-2.024 2.739,-1.23 2.739,-0.029 C 2.739,1.18 2.196,1.967 1.373,1.967 C 0.551,1.967 0,1.18 0,0 M 3.312,-0.029 C 3.312,-1.495 2.525,-2.496 1.373,-2.496 C 0.201,-2.496 -0.572,-1.502 -0.572,0.007 C -0.572,1.43 0.229,2.439 1.373,2.439 C 2.525,2.439 3.312,1.438 3.312,-0.029" id="path161" style="fill:#58585a;fill-opacity:1;fill-rule:nonzero;stroke:none"/>
        </g>
        <g transform="translate(502.9572,30.8343)" id="g163">
          <path d="M 0,0 C 0.58,0 0.744,0.014 0.966,0.093 C 1.309,0.215 1.502,0.515 1.502,0.923 C 1.502,1.288 1.338,1.566 1.052,1.688 C 0.83,1.789 0.666,1.803 -0.014,1.803 L -0.336,1.803 L -0.336,0 L 0,0 z M -0.028,2.268 C 0.708,2.268 0.98,2.239 1.295,2.117 C 1.774,1.931 2.067,1.481 2.067,0.916 C 2.067,0.286 1.739,-0.143 1.087,-0.379 L 2.339,-2.503 L 1.695,-2.503 L 0.494,-0.465 L -0.336,-0.465 L -0.336,-2.503 L -0.872,-2.503 L -0.872,2.268 L -0.028,2.268" id="path165" style="fill:#58585a;fill-opacity:1;fill-rule:nonzero;stroke:none"/>
        </g>
        <g transform="translate(508.5579,31.8644)" id="g167">
          <path d="M 0,0 C -0.05,0.544 -0.386,0.851 -0.93,0.851 C -1.431,0.851 -1.802,0.544 -1.802,0.122 C -1.802,-0.079 -1.702,-0.257 -1.516,-0.379 C -1.359,-0.486 -1.359,-0.486 -0.665,-0.801 C -0.036,-1.08 0.215,-1.237 0.393,-1.452 C 0.565,-1.666 0.658,-1.945 0.658,-2.253 C 0.658,-3.068 0.029,-3.612 -0.901,-3.612 C -1.48,-3.612 -1.939,-3.405 -2.21,-3.033 C -2.396,-2.775 -2.475,-2.518 -2.496,-2.081 L -1.974,-2.081 C -1.924,-2.768 -1.545,-3.14 -0.88,-3.14 C -0.3,-3.14 0.107,-2.797 0.107,-2.317 C 0.107,-2.081 0.014,-1.896 -0.179,-1.731 C -0.329,-1.602 -0.451,-1.538 -0.923,-1.33 C -1.438,-1.101 -1.752,-0.93 -1.917,-0.794 C -2.196,-0.565 -2.339,-0.272 -2.339,0.079 C -2.339,0.801 -1.738,1.323 -0.901,1.323 C -0.379,1.323 0.057,1.116 0.3,0.751 C 0.444,0.544 0.501,0.336 0.522,0 L 0,0" id="path169" style="fill:#58585a;fill-opacity:1;fill-rule:nonzero;stroke:none"/>
        </g>
        <g transform="translate(513.2358,31.7787)" id="g171">
          <path d="M 0,0 C -0.136,0.629 -0.501,0.937 -1.087,0.937 C -1.938,0.937 -2.475,0.165 -2.475,-1.066 C -2.475,-2.303 -1.946,-3.061 -1.08,-3.061 C -0.415,-3.061 -0.007,-2.632 0.071,-1.831 L 0.579,-1.831 C 0.494,-2.918 -0.1,-3.534 -1.058,-3.534 C -2.274,-3.534 -3.047,-2.582 -3.047,-1.08 C -3.047,0.429 -2.274,1.409 -1.08,1.409 C -0.193,1.409 0.379,0.894 0.501,0 L 0,0" id="path173" style="fill:#58585a;fill-opacity:1;fill-rule:nonzero;stroke:none"/>
        </g>
        <g transform="translate(517.7208,31.0489)" id="g175">
          <path d="M 0,0 L 0,2.053 L 0.536,2.053 L 0.536,-2.718 L 0,-2.718 L 0,-0.443 L -2.239,-0.443 L -2.239,-2.718 L -2.775,-2.718 L -2.775,2.053 L -2.239,2.053 L -2.239,0 L 0,0 z" id="path177" style="fill:#58585a;fill-opacity:1;fill-rule:nonzero;stroke:none"/>
        </g>
        <g transform="translate(520.1667,33.1019)" id="g179">
          <path d="M 0,0 L 0,-2.811 C 0,-3.541 0.029,-3.719 0.172,-3.941 C 0.351,-4.213 0.715,-4.377 1.152,-4.377 C 1.659,-4.377 2.06,-4.156 2.203,-3.791 C 2.282,-3.605 2.296,-3.419 2.296,-2.811 L 2.296,0 L 2.832,0 L 2.832,-2.818 C 2.832,-3.576 2.818,-3.705 2.718,-3.963 C 2.489,-4.52 1.91,-4.849 1.152,-4.849 C 0.386,-4.849 -0.193,-4.52 -0.422,-3.963 C -0.522,-3.705 -0.536,-3.576 -0.536,-2.818 L -0.536,0 L 0,0" id="path181" style="fill:#58585a;fill-opacity:1;fill-rule:nonzero;stroke:none"/>
        </g>
        <g transform="translate(524.959,33.1019)" id="g183">
          <path d="M 0,0 L 2.289,-3.97 L 2.289,0 L 2.79,0 L 2.79,-4.771 L 2.204,-4.771 L -0.071,-0.808 L -0.071,-4.771 L -0.579,-4.771 L -0.579,0 L 0,0 z" id="path185" style="fill:#58585a;fill-opacity:1;fill-rule:nonzero;stroke:none"/>
        </g>
        <g transform="translate(532.5768,30.6987)" id="g187">
          <path d="M 0,0 L 0,-1.96 C -0.45,-2.289 -0.987,-2.454 -1.573,-2.454 C -2.861,-2.454 -3.634,-1.523 -3.634,0.028 C -3.634,1.531 -2.861,2.489 -1.645,2.489 C -0.751,2.489 -0.172,1.981 -0.064,1.087 L -0.565,1.087 C -0.708,1.724 -1.051,2.017 -1.645,2.017 C -2.525,2.017 -3.061,1.266 -3.061,0.021 C -3.061,-1.252 -2.517,-1.981 -1.566,-1.981 C -1.202,-1.981 -0.837,-1.874 -0.486,-1.667 L -0.486,-0.465 L -1.452,-0.465 L -1.452,0 L 0,0" id="path189" style="fill:#58585a;fill-opacity:1;fill-rule:nonzero;stroke:none"/>
        </g>
        <g transform="translate(536.1028,31.8644)" id="g191">
          <path d="M 0,0 C -0.05,0.544 -0.386,0.851 -0.929,0.851 C -1.43,0.851 -1.802,0.544 -1.802,0.122 C -1.802,-0.079 -1.702,-0.257 -1.516,-0.379 C -1.359,-0.486 -1.359,-0.486 -0.665,-0.801 C -0.035,-1.08 0.215,-1.237 0.394,-1.452 C 0.565,-1.666 0.658,-1.945 0.658,-2.253 C 0.658,-3.068 0.029,-3.612 -0.901,-3.612 C -1.481,-3.612 -1.938,-3.405 -2.21,-3.033 C -2.396,-2.775 -2.475,-2.518 -2.496,-2.081 L -1.974,-2.081 C -1.924,-2.768 -1.545,-3.14 -0.88,-3.14 C -0.3,-3.14 0.108,-2.797 0.108,-2.317 C 0.108,-2.081 0.015,-1.896 -0.178,-1.731 C -0.329,-1.602 -0.45,-1.538 -0.923,-1.33 C -1.438,-1.101 -1.752,-0.93 -1.917,-0.794 C -2.195,-0.565 -2.338,-0.272 -2.338,0.079 C -2.338,0.801 -1.738,1.323 -0.901,1.323 C -0.379,1.323 0.058,1.116 0.301,0.751 C 0.444,0.544 0.501,0.336 0.523,0 L 0,0" id="path193" style="fill:#58585a;fill-opacity:1;fill-rule:nonzero;stroke:none"/>
        </g>
        <g transform="translate(540.6736,33.1019)" id="g195">
          <path d="M 0,0 L 0,-0.365 L -2.453,-4.306 L -0.043,-4.306 L -0.043,-4.771 L -3.083,-4.771 L -3.083,-4.356 L -0.651,-0.458 L -2.933,-0.458 L -2.933,0 L 0,0 z" id="path197" style="fill:#58585a;fill-opacity:1;fill-rule:nonzero;stroke:none"/>
        </g>
        <g transform="translate(544.1926,31.0348)" id="g199">
          <path d="M 0,0 L 0,-0.465 L -1.931,-0.465 L -1.931,-2.239 L 0.201,-2.239 L 0.201,-2.704 L -2.468,-2.704 L -2.468,2.067 L 0.151,2.067 L 0.151,1.602 L -1.931,1.602 L -1.931,0 L 0,0 z" id="path201" style="fill:#58585a;fill-opacity:1;fill-rule:nonzero;stroke:none"/>
        </g>
        <g transform="translate(546.1095,33.1019)" id="g203">
          <path d="M 0,0 L 2.289,-3.97 L 2.289,0 L 2.79,0 L 2.79,-4.771 L 2.203,-4.771 L -0.071,-0.808 L -0.071,-4.771 L -0.579,-4.771 L -0.579,0 L 0,0 z" id="path205" style="fill:#58585a;fill-opacity:1;fill-rule:nonzero;stroke:none"/>
        </g>
        <g transform="translate(552.8975,33.1019)" id="g207">
          <path d="M 0,0 L 0,-0.465 L -1.245,-0.465 L -1.245,-4.771 L -1.781,-4.771 L -1.781,-0.465 L -3.019,-0.465 L -3.019,0 L 0,0 z" id="path209" style="fill:#58585a;fill-opacity:1;fill-rule:nonzero;stroke:none"/>
        </g>
        <g transform="translate(554.7425,30.8343)" id="g211">
          <path d="M 0,0 C 0.58,0 0.744,0.014 0.966,0.093 C 1.309,0.215 1.502,0.515 1.502,0.923 C 1.502,1.288 1.338,1.566 1.052,1.688 C 0.83,1.789 0.666,1.803 -0.014,1.803 L -0.336,1.803 L -0.336,0 L 0,0 z M -0.028,2.268 C 0.708,2.268 0.98,2.239 1.295,2.117 C 1.774,1.931 2.067,1.481 2.067,0.916 C 2.067,0.286 1.739,-0.143 1.087,-0.379 L 2.339,-2.503 L 1.695,-2.503 L 0.494,-0.465 L -0.336,-0.465 L -0.336,-2.503 L -0.872,-2.503 L -0.872,2.268 L -0.028,2.268" id="path213" style="fill:#58585a;fill-opacity:1;fill-rule:nonzero;stroke:none"/>
        </g>
        <g transform="translate(558.5187,33.1019)" id="g215">
          <path d="M 0,0 L 0,-2.811 C 0,-3.541 0.028,-3.719 0.172,-3.941 C 0.35,-4.213 0.715,-4.377 1.152,-4.377 C 1.659,-4.377 2.06,-4.156 2.203,-3.791 C 2.281,-3.605 2.296,-3.419 2.296,-2.811 L 2.296,0 L 2.832,0 L 2.832,-2.818 C 2.832,-3.576 2.818,-3.705 2.718,-3.963 C 2.489,-4.52 1.909,-4.849 1.152,-4.849 C 0.386,-4.849 -0.193,-4.52 -0.422,-3.963 C -0.523,-3.705 -0.537,-3.576 -0.537,-2.818 L -0.537,0 L 0,0" id="path217" style="fill:#58585a;fill-opacity:1;fill-rule:nonzero;stroke:none"/>
        </g>
        <g transform="translate(563.5398,33.1019)" id="g219">
          <path d="M 0,0 L 1.338,-4.184 L 2.683,0 L 3.491,0 L 3.491,-4.771 L 2.983,-4.771 L 2.983,-0.536 L 1.61,-4.771 L 1.073,-4.771 L -0.3,-0.536 L -0.3,-4.771 L -0.808,-4.771 L -0.808,0 L 0,0 z" id="path221" style="fill:#58585a;fill-opacity:1;fill-rule:nonzero;stroke:none"/>
        </g>
      </g>
    </g>
  </g>
</svg>
