<?xml version="1.0" encoding="UTF-8" standalone="no"?>
<svg
   xmlns:dc="http://purl.org/dc/elements/1.1/"
   xmlns:cc="http://creativecommons.org/ns#"
   xmlns:rdf="http://www.w3.org/1999/02/22-rdf-syntax-ns#"
   xmlns:svg="http://www.w3.org/2000/svg"
   xmlns="http://www.w3.org/2000/svg"
   xmlns:sodipodi="http://sodipodi.sourceforge.net/DTD/sodipodi-0.dtd"
   xmlns:inkscape="http://www.inkscape.org/namespaces/inkscape"
   inkscape:version="1.0 (4035a4fb49, 2020-05-01)"
   sodipodi:docname="helmholtz_logo.svg"
   id="svg73"
   version="1.2"
   viewBox="0 0 1420.58 255.12"
   height="255.12pt"
   width="1420.58pt">
  <metadata
     id="metadata79">
    <rdf:RDF>
      <cc:Work
         rdf:about="">
        <dc:format>image/svg+xml</dc:format>
        <dc:type
           rdf:resource="http://purl.org/dc/dcmitype/StillImage" />
        <dc:title></dc:title>
      </cc:Work>
    </rdf:RDF>
  </metadata>
  <defs
     id="defs77" />
  <sodipodi:namedview
     inkscape:current-layer="svg73"
     inkscape:window-maximized="1"
     inkscape:window-y="0"
     inkscape:window-x="0"
     inkscape:cy="170.08"
     inkscape:cx="947.0533"
     inkscape:zoom="0.69584256"
     showgrid="false"
     id="namedview75"
     inkscape:window-height="1136"
     inkscape:window-width="1920"
     inkscape:pageshadow="2"
     inkscape:pageopacity="0"
     guidetolerance="10"
     gridtolerance="10"
     objecttolerance="10"
     borderopacity="1"
     bordercolor="#666666"
     pagecolor="#ffffff" />
  <g
     id="surface6064">
    <path
       id="path2"
       d="M 169.003906 119.460938 L 169.003906 85.039062 L 185.324219 85.039062 L 185.324219 170.082031 L 169.003906 170.082031 L 169.003906 135.777344 L 139.859375 135.777344 L 139.859375 170.082031 L 123.550781 170.082031 L 123.550781 85.039062 L 139.859375 85.039062 L 139.859375 119.460938 L 169.003906 119.460938 "
       style=" stroke:none;fill-rule:nonzero;fill:rgb(7.215881%,35.414124%,61.885071%);fill-opacity:1;" />
    <path
       id="path4"
       d="M 257.21875 85.039062 L 257.21875 101.351562 L 219.910156 101.351562 L 219.910156 119.460938 L 252.296875 119.460938 L 252.296875 135.777344 L 219.910156 135.777344 L 219.910156 153.769531 L 257.21875 153.769531 L 257.21875 170.082031 L 211.636719 170.082031 C 210.914062 170.082031 210.191406 169.835938 209.710938 169.238281 L 204.4375 163.96875 C 203.84375 163.488281 203.597656 162.765625 203.597656 162.042969 L 203.597656 93.070312 C 203.597656 92.355469 203.84375 91.632812 204.4375 91.15625 L 209.710938 85.882812 C 210.191406 85.394531 210.914062 85.039062 211.636719 85.039062 L 257.21875 85.039062 "
       style=" stroke:none;fill-rule:nonzero;fill:rgb(7.215881%,35.414124%,61.885071%);fill-opacity:1;" />
    <path
       id="path6"
       d="M 282.445312 170.082031 C 281.722656 170.082031 281 169.835938 280.519531 169.238281 L 275.246094 163.96875 C 274.640625 163.488281 274.40625 162.765625 274.40625 162.042969 L 274.40625 85.039062 L 290.71875 85.039062 L 290.71875 153.769531 L 326.21875 153.769531 L 326.21875 170.082031 L 282.445312 170.082031 "
       style=" stroke:none;fill-rule:nonzero;fill:rgb(7.215881%,35.414124%,61.885071%);fill-opacity:1;" />
    <path
       id="path8"
       d="M 413.808594 85.039062 L 413.808594 170.082031 L 397.496094 170.082031 L 397.496094 123.0625 L 384.1875 150.890625 C 383.707031 151.847656 382.75 152.449219 381.78125 152.449219 L 372.191406 152.449219 C 371.109375 152.449219 370.152344 151.847656 369.671875 150.890625 L 356.359375 123.0625 L 356.359375 170.082031 L 340.050781 170.082031 L 340.050781 85.039062 L 356.359375 85.039062 L 376.988281 128.222656 L 397.496094 85.039062 L 413.808594 85.039062 "
       style=" stroke:none;fill-rule:nonzero;fill:rgb(7.215881%,35.414124%,61.885071%);fill-opacity:1;" />
    <path
       id="path10"
       d="M 476.472656 119.460938 L 476.472656 85.039062 L 492.792969 85.039062 L 492.792969 170.082031 L 476.472656 170.082031 L 476.472656 135.777344 L 447.328125 135.777344 L 447.328125 170.082031 L 431.019531 170.082031 L 431.019531 85.039062 L 447.328125 85.039062 L 447.328125 119.460938 L 476.472656 119.460938 "
       style=" stroke:none;fill-rule:nonzero;fill:rgb(7.215881%,35.414124%,61.885071%);fill-opacity:1;" />
    <path
       id="path12"
       d="M 554.488281 145.851562 L 554.488281 109.390625 C 554.488281 108.667969 554.128906 107.945312 553.648438 107.464844 L 548.492188 102.191406 C 547.886719 101.714844 547.175781 101.351562 546.449219 101.351562 L 531.820312 101.351562 C 531.097656 101.351562 530.503906 101.714844 529.894531 102.191406 L 524.738281 107.464844 C 524.144531 107.945312 523.898438 108.667969 523.898438 109.390625 L 523.898438 145.851562 C 523.898438 146.570312 524.144531 147.167969 524.738281 147.773438 L 529.894531 152.929688 C 530.503906 153.527344 531.097656 153.769531 531.820312 153.769531 L 546.449219 153.769531 C 547.175781 153.769531 547.886719 153.527344 548.492188 152.929688 L 553.648438 147.773438 C 554.128906 147.167969 554.488281 146.570312 554.488281 145.851562 Z M 558.328125 89.113281 L 566.84375 97.515625 C 569.363281 100.03125 570.800781 103.511719 570.800781 107.105469 L 570.800781 148.007812 C 570.800781 151.609375 569.363281 155.089844 566.84375 157.609375 L 558.328125 166.125 C 555.808594 168.644531 552.332031 170.082031 548.726562 170.082031 L 529.660156 170.082031 C 526.058594 170.082031 522.464844 168.761719 519.945312 166.125 L 511.546875 157.609375 C 509.023438 155.089844 507.589844 151.609375 507.589844 148.007812 L 507.589844 107.105469 C 507.589844 103.511719 509.023438 100.03125 511.546875 97.515625 L 519.945312 89.113281 C 522.582031 86.476562 526.058594 85.039062 529.660156 85.039062 L 548.726562 85.039062 C 552.332031 85.039062 555.691406 86.59375 558.328125 89.113281 "
       style=" stroke:none;fill-rule:nonzero;fill:rgb(7.215881%,35.414124%,61.885071%);fill-opacity:1;" />
    <path
       id="path14"
       d="M 593.273438 170.082031 C 592.550781 170.082031 591.828125 169.835938 591.351562 169.238281 L 586.074219 163.96875 C 585.46875 163.488281 585.234375 162.765625 585.234375 162.042969 L 585.234375 85.039062 L 601.546875 85.039062 L 601.546875 153.769531 L 637.046875 153.769531 L 637.046875 170.082031 L 593.273438 170.082031 "
       style=" stroke:none;fill-rule:nonzero;fill:rgb(7.215881%,35.414124%,61.885071%);fill-opacity:1;" />
    <path
       id="path16"
       d="M 635.875 101.351562 L 635.875 85.039062 L 697.289062 85.039062 L 697.289062 101.351562 L 674.738281 101.351562 L 674.738281 170.082031 L 658.429688 170.082031 L 658.429688 101.351562 L 635.875 101.351562 "
       style=" stroke:none;fill-rule:nonzero;fill:rgb(7.215881%,35.414124%,61.885071%);fill-opacity:1;" />
    <path
       id="path18"
       d="M 760.433594 85.882812 L 765.707031 91.15625 C 766.183594 91.632812 766.546875 92.355469 766.546875 93.070312 L 766.546875 97.269531 L 730.800781 153.769531 L 766.066406 153.769531 L 766.066406 170.082031 L 717.371094 170.082031 C 716.648438 170.082031 715.925781 169.835938 715.445312 169.238281 L 710.171875 163.96875 C 709.691406 163.488281 709.332031 162.765625 709.332031 162.042969 L 709.332031 157.128906 L 744.601562 101.351562 L 708.855469 101.351562 L 708.855469 85.039062 L 758.507812 85.039062 C 759.230469 85.039062 759.953125 85.394531 760.433594 85.882812 "
       style=" stroke:none;fill-rule:nonzero;fill:rgb(7.215881%,35.414124%,61.885071%);fill-opacity:1;" />
    <path
       id="path20"
       d="M 833.246094 101.316406 L 835.683594 101.316406 C 838.742188 101.316406 840.859375 101.101562 842.039062 100.675781 C 843.203125 100.265625 844.082031 99.546875 844.679688 98.523438 C 845.195312 97.632812 845.449219 96.589844 845.449219 95.394531 C 845.449219 93.089844 844.535156 91.488281 842.707031 90.601562 C 841.800781 90.140625 840.535156 89.867188 838.914062 89.78125 C 838.28125 89.746094 837.109375 89.730469 835.402344 89.730469 L 833.246094 89.730469 Z M 827.839844 85.089844 L 835.375 85.089844 C 838.246094 85.089844 840.460938 85.191406 842.015625 85.398438 C 844.9375 85.808594 847.191406 86.945312 848.78125 88.808594 C 850.285156 90.601562 851.039062 92.816406 851.039062 95.445312 C 851.039062 100.0625 848.816406 103.265625 844.375 105.058594 L 852.988281 120.082031 L 846.605469 120.082031 L 838.632812 105.980469 L 833.246094 105.980469 L 833.246094 120.082031 L 827.839844 120.082031 L 827.839844 85.089844 "
       style=" stroke:none;fill-rule:nonzero;fill:rgb(50%,80.198669%,19.805908%);fill-opacity:1;" />
    <path
       id="path22"
       d="M 863.523438 99.625 L 877.570312 99.625 L 877.570312 104.289062 L 863.523438 104.289062 L 863.523438 115.414062 L 879.289062 115.414062 L 879.289062 120.082031 L 858.113281 120.082031 L 858.113281 85.089844 L 878.824219 85.089844 L 878.824219 89.730469 L 863.523438 89.730469 L 863.523438 99.625 "
       style=" stroke:none;fill-rule:nonzero;fill:rgb(50%,80.198669%,19.805908%);fill-opacity:1;" />
    <path
       id="path24"
       d="M 906.972656 94.777344 L 901.742188 94.777344 C 901.625 93.292969 901.179688 92.089844 900.410156 91.164062 C 899.28125 89.832031 897.652344 89.164062 895.515625 89.164062 C 893.992188 89.164062 892.710938 89.53125 891.671875 90.269531 C 890.4375 91.15625 889.824219 92.292969 889.824219 93.675781 C 889.824219 94.960938 890.472656 96.003906 891.773438 96.804688 C 892.574219 97.300781 894.558594 98.214844 897.71875 99.546875 C 900.4375 100.691406 902.289062 101.554688 903.28125 102.136719 C 906.410156 104 907.972656 106.726562 907.972656 110.316406 C 907.972656 113.75 906.675781 116.441406 904.078125 118.390625 C 902.007812 119.945312 899.308594 120.722656 895.976562 120.722656 C 891.089844 120.722656 887.535156 119.132812 885.3125 115.953125 C 884.0625 114.175781 883.371094 111.773438 883.234375 108.75 L 888.492188 108.75 C 888.679688 110.9375 889.277344 112.597656 890.285156 113.722656 C 891.636719 115.246094 893.566406 116.003906 896.078125 116.003906 C 897.925781 116.003906 899.453125 115.554688 900.667969 114.648438 C 901.828125 113.773438 902.410156 112.628906 902.410156 111.210938 C 902.410156 109.707031 901.648438 108.433594 900.128906 107.390625 C 899.308594 106.828125 897.394531 105.90625 894.386719 104.621094 C 890.816406 103.085938 888.414062 101.753906 887.183594 100.625 C 885.320312 98.882812 884.390625 96.726562 884.390625 94.164062 C 884.390625 90.917969 885.679688 88.40625 888.261719 86.628906 C 890.347656 85.175781 892.824219 84.449219 895.695312 84.449219 C 899.933594 84.449219 903.085938 85.894531 905.152344 88.78125 C 906.230469 90.269531 906.835938 92.269531 906.972656 94.777344 "
       style=" stroke:none;fill-rule:nonzero;fill:rgb(50%,80.198669%,19.805908%);fill-opacity:1;" />
    <path
       id="path26"
       d="M 920.074219 99.625 L 934.121094 99.625 L 934.121094 104.289062 L 920.074219 104.289062 L 920.074219 115.414062 L 935.839844 115.414062 L 935.839844 120.082031 L 914.664062 120.082031 L 914.664062 85.089844 L 935.378906 85.089844 L 935.378906 89.730469 L 920.074219 89.730469 L 920.074219 99.625 "
       style=" stroke:none;fill-rule:nonzero;fill:rgb(50%,80.198669%,19.805908%);fill-opacity:1;" />
    <path
       id="path28"
       d="M 957.9375 107.210938 L 952.988281 91.472656 L 948.039062 107.210938 Z M 950.347656 84.988281 L 955.601562 84.988281 L 967.574219 120.082031 L 961.960938 120.082031 L 959.371094 111.878906 L 946.632812 111.878906 L 943.988281 120.082031 L 938.429688 120.082031 L 950.347656 84.988281 "
       style=" stroke:none;fill-rule:nonzero;fill:rgb(50%,80.198669%,19.805908%);fill-opacity:1;" />
    <path
       id="path30"
       d="M 978.109375 101.316406 L 980.546875 101.316406 C 983.605469 101.316406 985.722656 101.101562 986.902344 100.675781 C 988.066406 100.265625 988.945312 99.546875 989.542969 98.523438 C 990.058594 97.632812 990.3125 96.589844 990.3125 95.394531 C 990.3125 93.089844 989.398438 91.488281 987.570312 90.601562 C 986.664062 90.140625 985.398438 89.867188 983.773438 89.78125 C 983.144531 89.746094 981.972656 89.730469 980.265625 89.730469 L 978.109375 89.730469 Z M 972.699219 85.089844 L 980.238281 85.089844 C 983.109375 85.089844 985.320312 85.191406 986.878906 85.398438 C 989.800781 85.808594 992.054688 86.945312 993.644531 88.808594 C 995.148438 90.601562 995.898438 92.816406 995.898438 95.445312 C 995.898438 100.0625 993.679688 103.265625 989.234375 105.058594 L 997.851562 120.082031 L 991.464844 120.082031 L 983.492188 105.980469 L 978.109375 105.980469 L 978.109375 120.082031 L 972.699219 120.082031 L 972.699219 85.089844 "
       style=" stroke:none;fill-rule:nonzero;fill:rgb(50%,80.198669%,19.805908%);fill-opacity:1;" />
    <path
       id="path32"
       d="M 1027.839844 95.675781 L 1023.050781 95.675781 C 1022.210938 91.335938 1019.808594 89.164062 1015.839844 89.164062 C 1013.058594 89.164062 1010.851562 90.304688 1009.230469 92.574219 C 1007.46875 95.085938 1006.589844 98.4375 1006.589844 102.625 C 1006.589844 106.828125 1007.5 110.195312 1009.328125 112.722656 C 1010.921875 114.910156 1013.109375 116.003906 1015.898438 116.003906 C 1020.390625 116.003906 1022.898438 113.203125 1023.429688 107.597656 L 1028.351562 107.597656 C 1028.171875 110.742188 1027.488281 113.304688 1026.328125 115.285156 C 1024.210938 118.910156 1020.800781 120.722656 1016.101562 120.722656 C 1011.878906 120.722656 1008.410156 119.320312 1005.691406 116.519531 C 1002.5 113.234375 1000.898438 108.621094 1000.898438 102.675781 C 1000.898438 96.230469 1002.679688 91.371094 1006.261719 88.089844 C 1008.910156 85.660156 1012.109375 84.449219 1015.871094 84.449219 C 1018.25 84.449219 1020.359375 84.960938 1022.230469 85.988281 C 1025.539062 87.78125 1027.410156 91.011719 1027.839844 95.675781 "
       style=" stroke:none;fill-rule:nonzero;fill:rgb(50%,80.198669%,19.805908%);fill-opacity:1;" />
    <path
       id="path34"
       d="M 1039.921875 99.574219 L 1055.011719 99.574219 L 1055.011719 85.089844 L 1060.421875 85.089844 L 1060.421875 120.082031 L 1055.011719 120.082031 L 1055.011719 104.058594 L 1039.921875 104.058594 L 1039.921875 120.082031 L 1034.511719 120.082031 L 1034.511719 85.089844 L 1039.921875 85.089844 L 1039.921875 99.574219 "
       style=" stroke:none;fill-rule:nonzero;fill:rgb(50%,80.198669%,19.805908%);fill-opacity:1;" />
    <path
       id="path36"
       d="M 1087.648438 99.625 L 1101.699219 99.625 L 1101.699219 104.289062 L 1087.648438 104.289062 L 1087.648438 120.082031 L 1082.238281 120.082031 L 1082.238281 85.089844 L 1102.949219 85.089844 L 1102.949219 89.730469 L 1087.648438 89.730469 L 1087.648438 99.625 "
       style=" stroke:none;fill-rule:nonzero;fill:rgb(50%,80.198669%,19.805908%);fill-opacity:1;" />
    <path
       id="path38"
       d="M 1121.691406 89.113281 C 1118.820312 89.113281 1116.589844 90.242188 1115 92.496094 C 1113.191406 95.0625 1112.28125 98.359375 1112.28125 102.394531 C 1112.28125 106.664062 1113.191406 110.09375 1115 112.671875 C 1116.570312 114.929688 1118.800781 116.058594 1121.691406 116.058594 C 1124.558594 116.058594 1126.78125 114.929688 1128.359375 112.671875 C 1130.171875 110.09375 1131.070312 106.726562 1131.070312 102.570312 C 1131.070312 98.367188 1130.171875 95.011719 1128.359375 92.496094 C 1126.730469 90.242188 1124.511719 89.113281 1121.691406 89.113281 Z M 1121.691406 84.449219 C 1125.839844 84.449219 1129.300781 85.917969 1132.070312 88.859375 C 1135.199219 92.15625 1136.761719 96.726562 1136.761719 102.570312 C 1136.761719 108.417969 1135.199219 112.996094 1132.070312 116.3125 C 1129.300781 119.253906 1125.851562 120.722656 1121.71875 120.722656 C 1117.511719 120.722656 1114.03125 119.253906 1111.28125 116.3125 C 1108.160156 112.996094 1106.589844 108.332031 1106.589844 102.316406 C 1106.589844 99.734375 1107.011719 97.164062 1107.851562 94.601562 C 1109.011719 91.097656 1111.089844 88.414062 1114.101562 86.550781 C 1116.359375 85.148438 1118.890625 84.449219 1121.691406 84.449219 "
       style=" stroke:none;fill-rule:nonzero;fill:rgb(50%,80.198669%,19.805908%);fill-opacity:1;" />
    <path
       id="path40"
       d="M 1148.761719 101.316406 L 1151.199219 101.316406 C 1154.25 101.316406 1156.371094 101.101562 1157.550781 100.675781 C 1158.71875 100.265625 1159.601562 99.546875 1160.191406 98.523438 C 1160.710938 97.632812 1160.960938 96.589844 1160.960938 95.394531 C 1160.960938 93.089844 1160.050781 91.488281 1158.21875 90.601562 C 1157.308594 90.140625 1156.050781 89.867188 1154.429688 89.78125 C 1153.789062 89.746094 1152.621094 89.730469 1150.910156 89.730469 L 1148.761719 89.730469 Z M 1143.351562 85.089844 L 1150.890625 85.089844 C 1153.761719 85.089844 1155.96875 85.191406 1157.53125 85.398438 C 1160.449219 85.808594 1162.710938 86.945312 1164.289062 88.808594 C 1165.800781 90.601562 1166.550781 92.816406 1166.550781 95.445312 C 1166.550781 100.0625 1164.328125 103.265625 1159.890625 105.058594 L 1168.5 120.082031 L 1162.121094 120.082031 L 1154.140625 105.980469 L 1148.761719 105.980469 L 1148.761719 120.082031 L 1143.351562 120.082031 L 1143.351562 85.089844 "
       style=" stroke:none;fill-rule:nonzero;fill:rgb(50%,80.198669%,19.805908%);fill-opacity:1;" />
    <path
       id="path42"
       d="M 841.988281 152.34375 L 853.679688 152.34375 L 853.679688 166.824219 C 849.988281 169.425781 845.894531 170.722656 841.398438 170.722656 C 836.855469 170.722656 833.203125 169.285156 830.453125 166.414062 C 828.882812 164.792969 827.726562 162.835938 826.992188 160.546875 C 826.171875 158.015625 825.761719 155.359375 825.761719 152.570312 C 825.761719 146.589844 827.335938 141.96875 830.480469 138.703125 C 833.214844 135.867188 836.691406 134.449219 840.914062 134.449219 C 843.375 134.449219 845.585938 134.980469 847.550781 136.039062 C 850.902344 137.832031 852.78125 141.019531 853.191406 145.601562 L 848.398438 145.601562 C 847.613281 141.3125 845.144531 139.164062 840.988281 139.164062 C 838.152344 139.164062 835.957031 140.164062 834.402344 142.164062 C 832.4375 144.660156 831.453125 148.128906 831.453125 152.570312 C 831.453125 157.03125 832.460938 160.511719 834.480469 163.007812 C 836.085938 165.003906 838.398438 166.003906 841.425781 166.003906 C 844.109375 166.003906 846.65625 165.246094 849.0625 163.722656 L 849.0625 156.597656 L 841.988281 156.597656 L 841.988281 152.34375 "
       style=" stroke:none;fill-rule:nonzero;fill:rgb(50%,80.198669%,19.805908%);fill-opacity:1;" />
    <path
       id="path44"
       d="M 866.445312 151.316406 L 868.882812 151.316406 C 871.9375 151.316406 874.058594 151.101562 875.238281 150.675781 C 876.398438 150.265625 877.28125 149.546875 877.878906 148.523438 C 878.390625 147.632812 878.648438 146.589844 878.648438 145.394531 C 878.648438 143.089844 877.734375 141.488281 875.902344 140.601562 C 874.996094 140.140625 873.734375 139.867188 872.109375 139.78125 C 871.480469 139.746094 870.308594 139.730469 868.597656 139.730469 L 866.445312 139.730469 Z M 861.035156 135.089844 L 868.574219 135.089844 C 871.445312 135.089844 873.65625 135.191406 875.210938 135.398438 C 878.136719 135.808594 880.390625 136.945312 881.980469 138.808594 C 883.484375 140.601562 884.234375 142.816406 884.234375 145.445312 C 884.234375 150.0625 882.015625 153.265625 877.570312 155.058594 L 886.183594 170.082031 L 879.800781 170.082031 L 871.828125 155.980469 L 866.445312 155.980469 L 866.445312 170.082031 L 861.035156 170.082031 L 861.035156 135.089844 "
       style=" stroke:none;fill-rule:nonzero;fill:rgb(50%,80.198669%,19.805908%);fill-opacity:1;" />
    <path
       id="path46"
       d="M 907.257812 157.210938 L 902.308594 141.472656 L 897.359375 157.210938 Z M 899.667969 134.988281 L 904.921875 134.988281 L 916.894531 170.082031 L 911.28125 170.082031 L 908.691406 161.878906 L 895.949219 161.878906 L 893.3125 170.082031 L 887.746094 170.082031 L 899.667969 134.988281 "
       style=" stroke:none;fill-rule:nonzero;fill:rgb(50%,80.198669%,19.805908%);fill-opacity:1;" />
    <path
       id="path48"
       d="M 922.019531 135.089844 L 927.839844 135.089844 L 943.273438 161.828125 L 943.273438 135.089844 L 948.398438 135.089844 L 948.398438 170.082031 L 942.8125 170.082031 L 927.171875 143.394531 L 927.171875 170.082031 L 922.019531 170.082031 L 922.019531 135.089844 "
       style=" stroke:none;fill-rule:nonzero;fill:rgb(50%,80.198669%,19.805908%);fill-opacity:1;" />
    <path
       id="path50"
       d="M 962.496094 165.414062 L 965.316406 165.414062 C 967.421875 165.414062 969.050781 165.320312 970.214844 165.132812 C 972.863281 164.671875 974.855469 163.347656 976.1875 161.160156 C 977.605469 158.820312 978.3125 155.941406 978.3125 152.523438 C 978.3125 149.019531 977.527344 146.113281 975.957031 143.804688 C 974.535156 141.703125 972.519531 140.445312 969.90625 140.035156 C 968.726562 139.832031 966.761719 139.730469 964.011719 139.730469 L 962.496094 139.730469 Z M 957.089844 135.089844 L 964.191406 135.089844 C 967.027344 135.089844 969.351562 135.226562 971.164062 135.5 C 974.90625 136.082031 977.902344 137.832031 980.160156 140.753906 C 982.65625 143.984375 983.902344 147.925781 983.902344 152.570312 C 983.902344 157.339844 982.628906 161.347656 980.082031 164.59375 C 977.777344 167.570312 974.632812 169.296875 970.648438 169.773438 C 969.027344 169.980469 966.625 170.082031 963.445312 170.082031 L 957.089844 170.082031 L 957.089844 135.089844 "
       style=" stroke:none;fill-rule:nonzero;fill:rgb(50%,80.198669%,19.805908%);fill-opacity:1;" />
    <path
       id="path52"
       d="M 1028.511719 145.675781 L 1023.710938 145.675781 C 1022.878906 141.335938 1020.46875 139.164062 1016.511719 139.164062 C 1013.71875 139.164062 1011.519531 140.304688 1009.898438 142.574219 C 1008.140625 145.085938 1007.261719 148.4375 1007.261719 152.625 C 1007.261719 156.828125 1008.171875 160.195312 1010 162.722656 C 1011.589844 164.914062 1013.78125 166.003906 1016.558594 166.003906 C 1021.058594 166.003906 1023.570312 163.203125 1024.101562 157.597656 L 1029.019531 157.597656 C 1028.828125 160.742188 1028.160156 163.304688 1027 165.289062 C 1024.878906 168.910156 1021.46875 170.722656 1016.769531 170.722656 C 1012.550781 170.722656 1009.078125 169.320312 1006.359375 166.519531 C 1003.160156 163.234375 1001.570312 158.621094 1001.570312 152.675781 C 1001.570312 146.230469 1003.351562 141.371094 1006.921875 138.089844 C 1009.570312 135.660156 1012.78125 134.449219 1016.539062 134.449219 C 1018.910156 134.449219 1021.03125 134.960938 1022.890625 135.988281 C 1026.210938 137.78125 1028.078125 141.011719 1028.511719 145.675781 "
       style=" stroke:none;fill-rule:nonzero;fill:rgb(50%,80.198669%,19.805908%);fill-opacity:1;" />
    <path
       id="path54"
       d="M 1040.578125 149.574219 L 1055.679688 149.574219 L 1055.679688 135.089844 L 1061.089844 135.089844 L 1061.089844 170.082031 L 1055.679688 170.082031 L 1055.679688 154.058594 L 1040.578125 154.058594 L 1040.578125 170.082031 L 1035.171875 170.082031 L 1035.171875 135.089844 L 1040.578125 135.089844 L 1040.578125 149.574219 "
       style=" stroke:none;fill-rule:nonzero;fill:rgb(50%,80.198669%,19.805908%);fill-opacity:1;" />
    <path
       id="path56"
       d="M 1085.730469 157.210938 L 1080.78125 141.472656 L 1075.828125 157.210938 Z M 1078.140625 134.988281 L 1083.390625 134.988281 L 1095.359375 170.082031 L 1089.75 170.082031 L 1087.160156 161.878906 L 1074.421875 161.878906 L 1071.78125 170.082031 L 1066.21875 170.082031 L 1078.140625 134.988281 "
       style=" stroke:none;fill-rule:nonzero;fill:rgb(50%,80.198669%,19.805908%);fill-opacity:1;" />
    <path
       id="path58"
       d="M 1100.488281 135.089844 L 1106.050781 135.089844 L 1106.050781 165.414062 L 1121.148438 165.414062 L 1121.148438 170.082031 L 1100.488281 170.082031 L 1100.488281 135.089844 "
       style=" stroke:none;fill-rule:nonzero;fill:rgb(50%,80.198669%,19.805908%);fill-opacity:1;" />
    <path
       id="path60"
       d="M 1126.539062 135.089844 L 1132.101562 135.089844 L 1132.101562 165.414062 L 1147.199219 165.414062 L 1147.199219 170.082031 L 1126.539062 170.082031 L 1126.539062 135.089844 "
       style=" stroke:none;fill-rule:nonzero;fill:rgb(50%,80.198669%,19.805908%);fill-opacity:1;" />
    <path
       id="path62"
       d="M 1157.988281 149.625 L 1172.039062 149.625 L 1172.039062 154.289062 L 1157.988281 154.289062 L 1157.988281 165.414062 L 1173.75 165.414062 L 1173.75 170.082031 L 1152.578125 170.082031 L 1152.578125 135.089844 L 1173.289062 135.089844 L 1173.289062 139.730469 L 1157.988281 139.730469 L 1157.988281 149.625 "
       style=" stroke:none;fill-rule:nonzero;fill:rgb(50%,80.198669%,19.805908%);fill-opacity:1;" />
    <path
       id="path64"
       d="M 1179.910156 135.089844 L 1185.730469 135.089844 L 1201.160156 161.828125 L 1201.160156 135.089844 L 1206.289062 135.089844 L 1206.289062 170.082031 L 1200.699219 170.082031 L 1185.058594 143.394531 L 1185.058594 170.082031 L 1179.910156 170.082031 L 1179.910156 135.089844 "
       style=" stroke:none;fill-rule:nonzero;fill:rgb(50%,80.198669%,19.805908%);fill-opacity:1;" />
    <path
       id="path66"
       d="M 1229.128906 152.34375 L 1240.820312 152.34375 L 1240.820312 166.824219 C 1237.121094 169.425781 1233.03125 170.722656 1228.539062 170.722656 C 1223.988281 170.722656 1220.339844 169.285156 1217.589844 166.414062 C 1216.019531 164.792969 1214.859375 162.835938 1214.128906 160.546875 C 1213.308594 158.015625 1212.898438 155.359375 1212.898438 152.570312 C 1212.898438 146.589844 1214.46875 141.96875 1217.621094 138.703125 C 1220.351562 135.867188 1223.828125 134.449219 1228.050781 134.449219 C 1230.511719 134.449219 1232.71875 134.980469 1234.691406 136.039062 C 1238.039062 137.832031 1239.921875 141.019531 1240.328125 145.601562 L 1235.539062 145.601562 C 1234.75 141.3125 1232.28125 139.164062 1228.128906 139.164062 C 1225.289062 139.164062 1223.089844 140.164062 1221.539062 142.164062 C 1219.570312 144.660156 1218.589844 148.128906 1218.589844 152.570312 C 1218.589844 157.03125 1219.601562 160.511719 1221.621094 163.007812 C 1223.21875 165.003906 1225.539062 166.003906 1228.558594 166.003906 C 1231.25 166.003906 1233.789062 165.246094 1236.199219 163.722656 L 1236.199219 156.597656 L 1229.128906 156.597656 L 1229.128906 152.34375 "
       style=" stroke:none;fill-rule:nonzero;fill:rgb(50%,80.198669%,19.805908%);fill-opacity:1;" />
    <path
       id="path68"
       d="M 1253.578125 149.625 L 1267.628906 149.625 L 1267.628906 154.289062 L 1253.578125 154.289062 L 1253.578125 165.414062 L 1269.351562 165.414062 L 1269.351562 170.082031 L 1248.171875 170.082031 L 1248.171875 135.089844 L 1268.878906 135.089844 L 1268.878906 139.730469 L 1253.578125 139.730469 L 1253.578125 149.625 "
       style=" stroke:none;fill-rule:nonzero;fill:rgb(50%,80.198669%,19.805908%);fill-opacity:1;" />
    <path
       id="path70"
       d="M 1297.03125 144.777344 L 1291.800781 144.777344 C 1291.679688 143.292969 1291.238281 142.089844 1290.46875 141.164062 C 1289.339844 139.832031 1287.710938 139.164062 1285.570312 139.164062 C 1284.050781 139.164062 1282.769531 139.53125 1281.730469 140.269531 C 1280.5 141.15625 1279.878906 142.292969 1279.878906 143.675781 C 1279.878906 144.960938 1280.53125 146.003906 1281.828125 146.804688 C 1282.628906 147.300781 1284.621094 148.214844 1287.78125 149.546875 C 1290.5 150.691406 1292.351562 151.554688 1293.339844 152.136719 C 1296.46875 154 1298.03125 156.726562 1298.03125 160.316406 C 1298.03125 163.75 1296.730469 166.441406 1294.140625 168.390625 C 1292.070312 169.945312 1289.371094 170.722656 1286.039062 170.722656 C 1281.148438 170.722656 1277.589844 169.132812 1275.371094 165.953125 C 1274.121094 164.175781 1273.429688 161.773438 1273.289062 158.75 L 1278.550781 158.75 C 1278.738281 160.9375 1279.339844 162.597656 1280.339844 163.722656 C 1281.691406 165.246094 1283.628906 166.003906 1286.140625 166.003906 C 1287.980469 166.003906 1289.511719 165.554688 1290.730469 164.648438 C 1291.890625 163.773438 1292.46875 162.628906 1292.46875 161.210938 C 1292.46875 159.707031 1291.710938 158.433594 1290.191406 157.390625 C 1289.371094 156.828125 1287.449219 155.90625 1284.449219 154.621094 C 1280.871094 153.085938 1278.46875 151.753906 1277.238281 150.625 C 1275.378906 148.882812 1274.449219 146.726562 1274.449219 144.164062 C 1274.449219 140.917969 1275.738281 138.40625 1278.320312 136.628906 C 1280.398438 135.175781 1282.878906 134.449219 1285.75 134.449219 C 1289.988281 134.449219 1293.140625 135.894531 1295.210938 138.78125 C 1296.289062 140.269531 1296.898438 142.269531 1297.03125 144.777344 "
       style=" stroke:none;fill-rule:nonzero;fill:rgb(50%,80.198669%,19.805908%);fill-opacity:1;" />
  </g>
</svg>
