<?xml version="1.0" encoding="UTF-8" standalone="no"?>
<svg
   xmlns:dc="http://purl.org/dc/elements/1.1/"
   xmlns:cc="http://creativecommons.org/ns#"
   xmlns:rdf="http://www.w3.org/1999/02/22-rdf-syntax-ns#"
   xmlns:svg="http://www.w3.org/2000/svg"
   xmlns="http://www.w3.org/2000/svg"
   xmlns:sodipodi="http://sodipodi.sourceforge.net/DTD/sodipodi-0.dtd"
   xmlns:inkscape="http://www.inkscape.org/namespaces/inkscape"
   inkscape:version="1.0 (4035a4fb49, 2020-05-01)"
   sodipodi:docname="kit_logo.svg"
   viewBox="0 0 262.42667 118.96"
   height="118.96"
   width="262.42667"
   xml:space="preserve"
   id="svg2"
   version="1.1"><metadata
     id="metadata8"><rdf:RDF><cc:Work
         rdf:about=""><dc:format>image/svg+xml</dc:format><dc:type
           rdf:resource="http://purl.org/dc/dcmitype/StillImage" /><dc:title></dc:title></cc:Work></rdf:RDF></metadata><defs
     id="defs6" /><sodipodi:namedview
     inkscape:current-layer="g10"
     inkscape:window-maximized="0"
     inkscape:window-y="23"
     inkscape:window-x="26"
     inkscape:cy="59.48"
     inkscape:cx="131.21333"
     inkscape:zoom="5.2586119"
     showgrid="false"
     id="namedview4"
     inkscape:window-height="480"
     inkscape:window-width="833"
     inkscape:pageshadow="2"
     inkscape:pageopacity="0"
     guidetolerance="10"
     gridtolerance="10"
     objecttolerance="10"
     borderopacity="1"
     bordercolor="#666666"
     pagecolor="#ffffff" /><g
     transform="matrix(1.3333333,0,0,-1.3333333,0,118.96)"
     inkscape:label="ink_ext_XXXXXX"
     inkscape:groupmode="layer"
     id="g10"><g
       transform="scale(0.1)"
       id="g12"><path
         id="path14"
         style="fill:#231f20;fill-opacity:1;fill-rule:evenodd;stroke:none"
         d="M 1223.53,190.918 H 1009.7 L 755.531,463.789 V 620.031 L 1001.77,892.188 H 1222.1 L 938.406,539.391 1223.53,190.918 Z m 224.64,0 h -192.24 v 700.551 h 192.24 V 190.918 Z m 509.05,700.551 h -462.97 v -157.68 h 135.37 V 190.195 h 192.23 v 543.594 h 135.37 v 157.68 0" /><path
         id="path16"
         style="fill:#231f20;fill-opacity:1;fill-rule:evenodd;stroke:none"
         d="m 709.449,190.918 v 0 0 0 0" /><path
         id="path18"
         style="fill:#231f20;fill-opacity:1;fill-rule:evenodd;stroke:none"
         d="m 709.449,190.918 v 0 0 0 0" /><path
         id="path20"
         style="fill:#00a990;fill-opacity:1;fill-rule:evenodd;stroke:none"
         d="M 161.527,635.148 C 124.809,590.508 93.1289,541.547 68.6484,488.988 L 709.449,190.918 161.527,635.148 v 0" /><path
         id="path22"
         style="fill:#00a990;fill-opacity:1;fill-rule:evenodd;stroke:none"
         d="M 709.449,190.918 410.648,826.672 C 357.367,802.188 308.406,771.949 263.77,735.949 L 709.449,190.918 v 0 0" /><path
         id="path24"
         style="fill:#231f20;fill-opacity:1;fill-rule:evenodd;stroke:none"
         d="m 709.449,190.918 0.723,700.551 c -2.164,0 -3.602,0 -5.762,0 -56.883,0 -112.32,-7.199 -165.601,-20.16 l 170.64,-680.391 v 0 0" /><path
         id="path26"
         style="fill:#231f20;fill-opacity:1;fill-rule:evenodd;stroke:none"
         d="m 709.449,190.918 v 0 0 0 0 0" /><path
         id="path28"
         style="fill:#231f20;fill-opacity:1;fill-rule:evenodd;stroke:none"
         d="m 709.449,190.918 v 0 0 0 0 0" /><path
         id="path30"
         style="fill:#00a990;fill-opacity:1;fill-rule:evenodd;stroke:none"
         d="M 22.5703,362.266 C 8.16797,307.539 0.972656,249.941 0.25,190.918 H 709.449 L 22.5703,362.266 v 0" /><path
         id="path32"
         style="fill:#231f20;fill-opacity:1;fill-rule:nonzero;stroke:none"
         d="M 0,28.4375 H 12.8008 V 72.2266 L 52.6133,28.4375 H 71.3047 L 25.9844,75.5469 67.9766,117.793 H 50.9531 L 12.8008,78.4961 V 117.793 H 0 v -89.3555 0" /><path
         id="path34"
         style="fill:#231f20;fill-opacity:1;fill-rule:nonzero;stroke:none"
         d="m 122.383,53.7891 c 0,-9.7266 -6.274,-17.168 -18.18,-17.168 -5.4999,0 -12.1639,3.7109 -12.1639,10.625 0,11.5234 16.1369,12.5586 22.6639,12.5586 2.559,0 5.117,-0.2539 7.68,-0.2539 V 53.7891 Z M 87.3047,78.8672 c 4.8672,4.1016 12.1641,6.6601 18.9453,6.6601 12.035,0 16.133,-5.7617 16.133,-17.0312 -4.738,0.2539 -8.067,0.2539 -12.805,0.2539 -12.4139,0 -30.3397,-5.1172 -30.3397,-21.5039 0,-14.1992 9.8594,-20.3711 23.9417,-20.3711 11.008,0 17.406,6.0352 20.222,10 h 0.258 v -8.4375 h 11.266 c -0.258,1.9141 -0.512,5.3711 -0.512,12.793 v 27.0117 c 0,17.793 -7.555,27.0117 -26.238,27.0117 -8.3283,0 -15.4963,-2.5586 -21.5119,-6.1328 l 0.6406,-10.2539 v 0" /><path
         id="path36"
         style="fill:#231f20;fill-opacity:1;fill-rule:nonzero;stroke:none"
         d="m 154.77,28.4375 h 12.031 v 29.707 c 0,16.3672 7.043,26.6211 17.793,26.6211 2.051,0 4.484,-0.2539 6.66,-1.1523 v 10.7422 c -2.559,0.5273 -4.356,0.8984 -7.938,0.8984 -6.91,0 -13.824,-4.8633 -17.027,-11.6406 h -0.254 V 93.7305 H 154.77 v -65.293 0" /><path
         id="path38"
         style="fill:#231f20;fill-opacity:1;fill-rule:nonzero;stroke:none"
         d="m 206.105,28.4375 h 12.036 v 96.0155 h -12.036 v -96.0155 0" /><path
         id="path40"
         style="fill:#231f20;fill-opacity:1;fill-rule:nonzero;stroke:none"
         d="m 234.652,30.4883 c 5.504,-2.9688 11.778,-3.6133 17.922,-3.6133 11.649,0 22.785,6.4258 22.785,20.3711 0,20.8789 -28.289,17.0312 -28.289,30.3516 0,5.3711 5.375,7.9296 11.52,7.9296 2.816,0 9.984,-1.6601 12.676,-3.3203 l 1.019,10.4883 c -4.734,1.4063 -9.34,2.5586 -14.976,2.5586 -12.93,0 -23.039,-6.5234 -23.039,-20.0976 0,-18.3008 28.289,-17.2852 28.289,-29.1797 0,-7.0508 -6.782,-9.3555 -12.289,-9.3555 -3.457,0 -10.243,1.543 -14.977,4.6094 l -0.641,-10.7422 v 0" /><path
         id="path42"
         style="fill:#231f20;fill-opacity:1;fill-rule:nonzero;stroke:none"
         d="m 289.957,28.4375 h 12.031 v 29.707 c 0,16.3672 7.039,26.6211 17.793,26.6211 2.051,0 4.481,-0.2539 6.66,-1.1523 v 10.7422 c -2.558,0.5273 -4.355,0.8984 -7.941,0.8984 -6.914,0 -13.82,-4.8633 -17.023,-11.6406 h -0.254 v 10.1172 h -11.266 v -65.293 0" /><path
         id="path44"
         style="fill:#231f20;fill-opacity:1;fill-rule:nonzero;stroke:none"
         d="M 397.484,93.7305 H 385.453 V 63.5156 c 0,-15.8789 -6.14,-26.8945 -19.844,-26.8945 -10.496,0.6445 -13.824,8.0664 -13.824,23.3008 V 93.7305 H 339.758 V 54.9414 c 0,-17.5391 7.547,-28.0664 24.445,-28.0664 9.09,0 17.793,4.5117 21.379,11.9336 h 0.258 V 28.4375 h 11.644 v 65.293 0" /><path
         id="path46"
         style="fill:#231f20;fill-opacity:1;fill-rule:nonzero;stroke:none"
         d="M 417.969,28.4375 H 430 v 30.2148 c 0,15.8594 6.148,26.875 19.844,26.875 10.5,-0.6445 13.824,-8.0664 13.824,-23.3007 V 28.4375 h 12.035 v 38.7891 c 0,17.539 -7.555,28.0273 -24.453,28.0273 -9.086,0 -16.641,-3.9648 -20.992,-10.8789 H 430 v 40.078 h -12.031 v -96.0155 0" /><path
         id="path48"
         style="fill:#231f20;fill-opacity:1;fill-rule:nonzero;stroke:none"
         d="m 504.633,67.3438 c 0.894,8.457 5.762,18.1835 17.539,18.1835 10.367,0 16.258,-8.1835 16.258,-18.1835 h -33.797 z m 41.601,-24.1797 c -2.941,-2.4414 -12.156,-6.543 -20.097,-6.543 -11.391,0 -21.504,8.8477 -21.504,21.7773 h 46.597 c 0,20.9961 -7.042,36.8555 -28.804,36.8555 -18.434,0 -30.594,-13.6914 -30.594,-33.0273 0,-21.25 10.625,-35.3516 33.793,-35.3516 10.754,0 16,2.5781 20.609,4.2578 v 12.0313 0" /><path
         id="path50"
         style="fill:#231f20;fill-opacity:1;fill-rule:nonzero;stroke:none"
         d="m 604.102,28.4375 h 12.796 v 89.3555 h -12.796 v -89.3555 0" /><path
         id="path52"
         style="fill:#231f20;fill-opacity:1;fill-rule:nonzero;stroke:none"
         d="m 638.535,28.4375 h 12.035 v 30.2148 c 0,15.8594 6.145,26.875 19.84,26.875 10.496,-0.6445 13.828,-8.0664 13.828,-23.3007 V 28.4375 h 12.032 v 38.7891 c 0,17.539 -7.547,28.0273 -24.45,28.0273 -9.09,0 -17.797,-4.4726 -21.375,-11.8945 h -0.257 v 10.3711 h -11.653 v -65.293 0" /><path
         id="path54"
         style="fill:#231f20;fill-opacity:1;fill-rule:nonzero;stroke:none"
         d="m 711.25,30.4883 c 5.504,-2.9688 11.777,-3.6133 17.922,-3.6133 11.648,0 22.781,6.4258 22.781,20.3711 0,20.8789 -28.285,17.0312 -28.285,30.3516 0,5.3711 5.371,7.9296 11.52,7.9296 2.816,0 9.984,-1.6601 12.671,-3.3203 l 1.024,10.4883 c -4.738,1.4063 -9.34,2.5586 -14.977,2.5586 -12.929,0 -23.043,-6.5234 -23.043,-20.0976 0,-18.3008 28.293,-17.2852 28.293,-29.1797 0,-7.0508 -6.785,-9.3555 -12.293,-9.3555 -3.457,0 -10.238,1.543 -14.972,4.6094 L 711.25,30.4883 v 0" /><path
         id="path56"
         style="fill:#231f20;fill-opacity:1;fill-rule:nonzero;stroke:none"
         d="M 801.246,93.7305 H 783.961 V 112.676 L 771.93,108.828 V 93.7305 H 757.207 V 83.9844 H 771.93 V 45.8398 c 0,-13.0468 7.675,-18.9648 20.097,-18.9648 3.836,0 7.547,1.0352 10.239,1.8164 v 10.2344 c -1.793,-1.1524 -4.485,-2.3047 -8.196,-2.3047 -5.5,0 -10.109,4.1016 -10.109,11.6602 v 35.7031 h 17.285 v 9.7461 0" /><path
         id="path58"
         style="fill:#231f20;fill-opacity:1;fill-rule:nonzero;stroke:none"
         d="M 830.688,121.895 H 817.117 V 108.32 h 13.571 v 13.575 z M 817.887,28.4375 h 12.031 v 65.293 h -12.031 v -65.293 0" /><path
         id="path60"
         style="fill:#231f20;fill-opacity:1;fill-rule:nonzero;stroke:none"
         d="m 886.633,93.7305 h -17.285 v 18.9455 l -12.035,-3.848 V 93.7305 h -14.719 v -9.7461 h 14.719 V 45.8398 c 0,-13.0468 7.683,-18.9648 20.097,-18.9648 3.844,0 7.551,1.0352 10.242,1.8164 v 10.2344 c -1.789,-1.1524 -4.476,-2.3047 -8.195,-2.3047 -5.504,0 -10.109,4.1016 -10.109,11.6602 v 35.7031 h 17.285 v 9.7461 0" /><path
         id="path62"
         style="fill:#231f20;fill-opacity:1;fill-rule:nonzero;stroke:none"
         d="M 959.469,93.7305 H 947.438 V 63.5156 c 0,-15.8789 -6.145,-26.8945 -19.844,-26.8945 -10.5,0.6445 -13.824,8.0664 -13.824,23.3008 V 93.7305 H 901.734 V 54.9414 c 0,-17.5391 7.551,-28.0664 24.454,-28.0664 9.085,0 17.792,4.5117 21.375,11.9336 h 0.257 V 28.4375 h 11.649 v 65.293 0" /><path
         id="path64"
         style="fill:#231f20;fill-opacity:1;fill-rule:nonzero;stroke:none"
         d="m 1014.64,93.7305 h -17.277 v 18.9455 l -12.035,-3.848 V 93.7305 h -14.723 v -9.7461 h 14.723 V 45.8398 c 0,-13.0468 7.68,-18.9648 20.102,-18.9648 3.84,0 7.55,1.0352 10.23,1.8164 v 10.2344 c -1.78,-1.1524 -4.48,-2.3047 -8.19,-2.3047 -5.5,0 -10.107,4.1016 -10.107,11.6602 v 35.7031 h 17.277 v 9.7461 0" /><path
         id="path66"
         style="fill:#231f20;fill-opacity:1;fill-rule:nonzero;stroke:none"
         d="m 1038.2,67.3438 c 0.89,8.457 5.76,18.1835 17.53,18.1835 10.37,0 16.26,-8.1835 16.26,-18.1835 h -33.79 z m 41.6,-24.1797 c -2.94,-2.4414 -12.15,-6.543 -20.09,-6.543 -11.4,0 -21.51,8.8477 -21.51,21.7773 h 46.59 c 0,20.9961 -7.04,36.8555 -28.79,36.8555 -18.44,0 -30.61,-13.6914 -30.61,-33.0273 0,-21.25 10.64,-35.3516 33.8,-35.3516 10.75,0 16.01,2.5781 20.61,4.2578 v 12.0313 0" /><path
         id="path68"
         style="fill:#231f20;fill-opacity:1;fill-rule:nonzero;stroke:none"
         d="m 1144.96,61.0742 c 0,12.4219 7.56,24.4531 20.48,24.4531 12.8,0 20.36,-12.0312 20.36,-24.4531 0,-11.6406 -6.27,-24.4531 -20.36,-24.4531 -14.21,0 -20.48,12.8125 -20.48,24.4531 z m -12.8,0 c 0,-18.6914 13.57,-34.1992 33.28,-34.1992 19.59,0 33.16,15.5078 33.16,34.1992 0,19.8438 -13.32,34.1797 -33.16,34.1797 -19.96,0 -33.28,-14.3359 -33.28,-34.1797 v 0" /><path
         id="path70"
         style="fill:#231f20;fill-opacity:1;fill-rule:nonzero;stroke:none"
         d="m 1222.54,28.4375 h 12.03 v 55.5469 h 17.29 v 9.7461 h -17.29 v 7.0315 c 0,8.828 1.28,15.488 11.65,15.488 2.05,0 4.36,-0.254 5.76,-0.762 l 0.51,9.727 c -2.43,0.39 -4.99,0.762 -8.07,0.762 -17.79,0 -21.88,-10.372 -21.88,-26.2309 v -6.0156 h -15.36 v -9.7461 h 15.36 v -55.5469 0" /><path
         id="path72"
         style="fill:#231f20;fill-opacity:1;fill-rule:nonzero;stroke:none"
         d="m 1319.06,28.4375 h 12.81 v 78.0855 h 27.77 v 11.27 h -68.36 v -11.27 h 27.78 v -78.0855 0" /><path
         id="path74"
         style="fill:#231f20;fill-opacity:1;fill-rule:nonzero;stroke:none"
         d="m 1370.27,67.3438 c 0.89,8.457 5.76,18.1835 17.53,18.1835 10.37,0 16.26,-8.1835 16.26,-18.1835 h -33.79 z m 41.61,-24.1797 c -2.95,-2.4414 -12.16,-6.543 -20.1,-6.543 -11.4,0 -21.51,8.8477 -21.51,21.7773 h 46.6 c 0,20.9961 -7.05,36.8555 -28.8,36.8555 -18.44,0 -30.61,-13.6914 -30.61,-33.0273 0,-21.25 10.64,-35.3516 33.8,-35.3516 10.75,0 16.01,2.5781 20.62,4.2578 v 12.0313 0" /><path
         id="path76"
         style="fill:#231f20;fill-opacity:1;fill-rule:nonzero;stroke:none"
         d="m 1475.5,92.6953 c -3.46,1.4063 -9.73,2.5586 -14.6,2.5586 -19.96,0 -33.28,-14.3359 -33.28,-34.1797 0,-18.6914 13.57,-34.1992 33.28,-34.1992 4.35,0 10.12,0.3906 15.11,2.7148 l -0.89,10.7422 c -3.72,-2.4218 -8.84,-3.7109 -12.93,-3.7109 -15.5,0 -21.77,12.8125 -21.77,24.4531 0,12.4219 7.56,24.4531 21,24.4531 3.83,0 8.44,-0.8984 13.05,-2.8125 l 1.03,9.9805 v 0" /><path
         id="path78"
         style="fill:#231f20;fill-opacity:1;fill-rule:nonzero;stroke:none"
         d="m 1489.83,28.4375 h 12.04 v 30.2148 c 0,15.8594 6.14,26.875 19.84,26.875 10.5,-0.6445 13.82,-8.0664 13.82,-23.3007 V 28.4375 h 12.04 v 38.7891 c 0,17.539 -7.56,28.0273 -24.45,28.0273 -9.1,0 -16.65,-3.9648 -21,-10.8789 h -0.25 v 40.078 h -12.04 v -96.0155 0" /><path
         id="path80"
         style="fill:#231f20;fill-opacity:1;fill-rule:nonzero;stroke:none"
         d="m 1568.05,28.4375 h 12.03 v 30.2148 c 0,15.8594 6.15,26.875 19.84,26.875 10.5,-0.6445 13.83,-8.0664 13.83,-23.3007 V 28.4375 h 12.03 v 38.7891 c 0,17.539 -7.55,28.0273 -24.45,28.0273 -9.08,0 -17.79,-4.4726 -21.38,-11.8945 h -0.25 v 10.3711 h -11.65 v -65.293 0" /><path
         id="path82"
         style="fill:#231f20;fill-opacity:1;fill-rule:nonzero;stroke:none"
         d="m 1654.72,61.0742 c 0,12.4219 7.55,24.4531 20.48,24.4531 12.8,0 20.35,-12.0312 20.35,-24.4531 0,-11.6406 -6.27,-24.4531 -20.35,-24.4531 -14.21,0 -20.48,12.8125 -20.48,24.4531 z m -12.81,0 c 0,-18.6914 13.57,-34.1992 33.29,-34.1992 19.58,0 33.15,15.5078 33.15,34.1992 0,19.8438 -13.31,34.1797 -33.15,34.1797 -19.98,0 -33.29,-14.3359 -33.29,-34.1797 v 0" /><path
         id="path84"
         style="fill:#231f20;fill-opacity:1;fill-rule:nonzero;stroke:none"
         d="m 1726.02,28.4375 h 12.03 v 96.0155 h -12.03 v -96.0155 0" /><path
         id="path86"
         style="fill:#231f20;fill-opacity:1;fill-rule:nonzero;stroke:none"
         d="m 1768.52,61.0742 c 0,12.4219 7.54,24.4531 20.47,24.4531 12.81,0 20.37,-12.0312 20.37,-24.4531 0,-11.6406 -6.28,-24.4531 -20.37,-24.4531 -14.2,0 -20.47,12.8125 -20.47,24.4531 z m -12.81,0 c 0,-18.6914 13.57,-34.1992 33.28,-34.1992 19.59,0 33.16,15.5078 33.16,34.1992 0,19.8438 -13.31,34.1797 -33.16,34.1797 -19.97,0 -33.28,-14.3359 -33.28,-34.1797 v 0" /><path
         id="path88"
         style="fill:#231f20;fill-opacity:1;fill-rule:nonzero;stroke:none"
         d="m 1864.9,38.1641 c -11.26,0 -18.17,10.7617 -18.17,23.0468 0,11.1329 6.01,24.3164 18.17,24.3164 12.81,0 19.08,-11.6406 19.08,-25.2148 0,-12.168 -7.81,-22.1484 -19.08,-22.1484 z m 31.12,55.5664 h -11.15 v -9.7461 h -0.25 c -3.58,7.0508 -9.98,11.2695 -21.5,11.2695 -19.72,0 -29.19,-17.9101 -29.19,-34.6875 0,-16.8945 9.21,-32.1289 27.91,-32.1289 8.32,0 16.76,3.3203 21.89,10.1172 h 0.25 v -6.4063 c 0,-13.8476 -7.55,-22.42184 -20.22,-22.42184 -8.84,0 -14.35,1.66014 -23.55,5.87894 L 1838.93,4.47266 C 1849.41,0.898438 1855.43,0 1862.34,0 c 23.43,0 33.68,11.3867 33.68,31.25 v 62.4805 0" /><path
         id="path90"
         style="fill:#231f20;fill-opacity:1;fill-rule:nonzero;stroke:none"
         d="M 1910.87,0.898438 C 1913.04,0.507813 1915.21,0 1919.05,0 c 15.88,0 20.62,14.4531 25.1,27.0117 l 24.06,66.7188 h -12.16 L 1938.13,39.707 h -0.26 l -17.53,54.0235 h -13.19 L 1929.3,32.793 c 0.77,-2.1875 2.3,-5.5274 2.3,-6.9336 0,-1.2891 -3.58,-16.13284 -14.33,-16.13284 -2.06,0 -4.1,0.50784 -5.64,1.01564 l -0.76,-9.843762 v 0" /></g></g></svg>
