<?xml version="1.0" encoding="UTF-8" standalone="no"?>
<svg
   xmlns:dc="http://purl.org/dc/elements/1.1/"
   xmlns:cc="http://creativecommons.org/ns#"
   xmlns:rdf="http://www.w3.org/1999/02/22-rdf-syntax-ns#"
   xmlns:svg="http://www.w3.org/2000/svg"
   xmlns="http://www.w3.org/2000/svg"
   xmlns:sodipodi="http://sodipodi.sourceforge.net/DTD/sodipodi-0.dtd"
   xmlns:inkscape="http://www.inkscape.org/namespaces/inkscape"
   inkscape:version="1.1-dev (a1a64ec, 2020-05-08)"
   sodipodi:docname="logo_emblem.svg"
   viewBox="0 0 505.08224 659.77417"
   height="659.77417"
   width="505.08221"
   xml:space="preserve"
   id="svg834"
   version="1.1"><metadata
     id="metadata840"><rdf:RDF><cc:Work
         rdf:about=""><dc:format>image/svg+xml</dc:format><dc:type
           rdf:resource="http://purl.org/dc/dcmitype/StillImage" /></cc:Work></rdf:RDF></metadata><defs
     id="defs838"><clipPath
       id="clipPath854"
       clipPathUnits="userSpaceOnUse"><path
         inkscape:connector-curvature="0"
         id="path852"
         d="M 0,707.965 H 871.456 V 0 H 0 Z" /></clipPath></defs><sodipodi:namedview
     inkscape:current-layer="g842"
     inkscape:window-maximized="0"
     inkscape:window-y="23"
     inkscape:window-x="0"
     inkscape:cy="175.96239"
     inkscape:cx="764.86876"
     inkscape:zoom="0.28147069"
     fit-margin-bottom="0"
     fit-margin-right="0"
     fit-margin-left="0"
     fit-margin-top="0"
     showgrid="false"
     id="namedview836"
     inkscape:window-height="755"
     inkscape:window-width="1248"
     inkscape:pageshadow="2"
     inkscape:pageopacity="0"
     guidetolerance="10"
     gridtolerance="10"
     objecttolerance="10"
     borderopacity="1"
     bordercolor="#666666"
     pagecolor="#ffffff" /><g
     transform="matrix(1.3333333,0,0,-1.3333333,91.650556,663.83309)"
     inkscape:label="logo_heAT"
     inkscape:groupmode="layer"
     id="g842">



<path
   sodipodi:nodetypes="caaaaaacaaaaaac"
   inkscape:connector-curvature="0"
   id="path1058"
   d="m 93.496204,32.194487 c 0,0 -1.558679,13.771945 -3.65894,20.329285 -2.274661,7.101829 -5.094566,14.255484 -9.566758,20.223815 C 75.348213,79.316588 68.1345,83.81142 61.861995,89.107442 54.645076,95.20086 45.803987,99.58011 39.754583,106.83313 c -4.895269,5.86925 -8.813179,12.81911 -10.897684,20.17108 -2.319405,8.18049 -2.237167,16.99942 -1.458307,25.4664 0.560454,6.09271 4.374907,17.82665 4.374907,17.82665 0,0 2.942338,-9.0335 5.446582,-13.01421 3.436815,-5.46308 8.171639,-10.04106 12.865456,-14.47196 5.145615,-4.85739 11.543965,-8.27078 16.651776,-13.16788 4.564516,-4.37621 8.896215,-9.09595 12.38238,-14.37099 5.073995,-7.67763 9.364361,-16.015089 12.175878,-24.777103 2.692494,-8.391104 3.888435,-17.279624 4.322159,-26.081139 0.529739,-10.750035 -2.121526,-32.219491 -2.121526,-32.219491 z"
   style="fill:#f0781e;fill-opacity:1;stroke:none;stroke-width:0.75px;stroke-linecap:butt;stroke-linejoin:miter;stroke-opacity:1" /><path
   sodipodi:nodetypes="caaaaaaaacaaaaaaaac"
   inkscape:connector-curvature="0"
   id="path1060"
   d="m 33.359157,269.10278 c 0,0 -4.25711,-14.42819 -5.398353,-21.83976 -1.068398,-6.93851 -2.094783,-14.04003 -1.330927,-21.0186 0.859134,-7.84902 3.508154,-15.48115 6.57554,-22.75734 3.472639,-8.23748 7.714953,-16.29654 13.247568,-23.31935 8.2147,-10.42731 19.252051,-18.28582 29.060516,-27.23154 8.869782,-8.08961 18.908953,-14.98054 26.934489,-23.90772 7.25893,-8.07443 14.01262,-16.82962 18.91608,-26.51582 4.82232,-9.525912 8.3436,-19.881301 10.00164,-30.428013 1.96899,-12.524843 -0.21742,-38.035025 -0.21742,-38.035025 0,0 14.3232,22.961287 18.69864,35.644239 3.14677,9.121454 5.17905,18.823415 5.21824,28.47194 0.0427,10.517039 -1.40429,21.365569 -5.43566,31.080009 -5.16205,12.43908 -13.90389,23.35105 -23.26461,33.03614 -7.00987,7.25276 -15.93689,12.37828 -24.13433,18.2568 -10.216611,7.32651 -21.621691,13.04905 -31.200676,21.19094 -8.631471,7.33652 -17.03293,15.2823 -23.373348,24.66842 -4.461191,6.6042 -7.477971,14.16181 -9.960802,21.73429 -2.223951,6.7829 -4.336587,20.97039 -4.336587,20.97039 z"
   style="fill:#f0781e;fill-opacity:1;stroke:none;stroke-width:0.75px;stroke-linecap:butt;stroke-linejoin:miter;stroke-opacity:1" /><path
   sodipodi:nodetypes="caaaaaaaaaaascaaaaaaaaaaaaac"
   inkscape:connector-curvature="0"
   id="path1062"
   d="m 146.90847,497.87483 c 0,0 -35.88138,-29.22717 -51.9276,-45.82205 C 83.293517,439.96582 71.81785,427.38377 62.898259,413.13295 53.330645,397.84678 44.960758,381.38232 40.391428,363.93887 c -3.531899,-13.48306 -4.765895,-27.78993 -3.478826,-41.66806 1.222211,-13.1788 5.178412,-26.17827 10.52387,-38.287 6.743383,-15.27536 15.853941,-29.69939 26.745335,-42.35814 13.872909,-16.12407 33.217403,-26.71322 48.269413,-41.74341 7.79266,-7.78136 15.14098,-16.07214 21.64617,-24.95715 7.46631,-10.19775 14.40756,-20.90474 19.80125,-32.33399 5.41598,-11.47652 10.32084,-23.47181 12.42157,-35.98625 1.95482,-11.64527 2.15183,-23.812105 0.009,-35.424251 C 173.68507,56.853513 168.2139,42.84909 160.71809,30.354788 154.5134,20.012566 136.98131,3.0441725 136.98131,3.0441725 c 0,0 24.30811,19.9738745 34.7701,31.6393825 11.02399,12.292159 21.42074,25.45437 29.16604,40.034782 5.73474,10.795545 9.98349,22.517928 12.47057,34.485583 2.51068,12.08124 3.24016,24.63946 2.32348,36.94455 -0.68126,9.14483 -2.68938,18.26226 -5.77593,26.89778 -4.20754,11.77182 -10.28593,22.90525 -17.15294,33.35255 -8.21191,12.49337 -18.71658,23.32819 -28.48022,34.6513 -8.73549,10.13073 -18.44894,19.41006 -26.91716,29.76506 -7.16154,8.75721 -14.72131,17.38328 -20.15244,27.3061 -7.89694,14.4279 -14.11524,30.01427 -17.648837,46.0767 -3.163077,14.37814 -4.075062,29.38508 -2.969377,44.06522 1.137699,15.10518 4.632934,30.13698 9.812464,44.37261 4.31024,11.84646 10.84011,22.82076 17.47333,33.54161 6.86921,11.10228 23.00808,31.69743 23.00808,31.69743 z"
   style="fill:#f0781e;fill-opacity:1;stroke:none;stroke-width:0.75px;stroke-linecap:butt;stroke-linejoin:miter;stroke-opacity:1" /><path
   sodipodi:nodetypes="caaaaaaaccaaaaaaaac"
   inkscape:connector-curvature="0"
   id="path1064"
   d="m 13.303335,354.68062 c 0,0 -23.794372,-19.2207 -33.711685,-30.75237 -12.069761,-14.0345 -22.838869,-29.48416 -30.860651,-46.16453 -7.083114,-14.72852 -12.049102,-30.62757 -14.8276,-46.73183 -2.923378,-16.94397 -3.269297,-34.4225 -1.776715,-51.55176 1.290834,-14.81387 4.418588,-29.57394 9.224619,-43.64644 4.265468,-12.48966 10.204031,-24.4747 17.21929,-35.65484 8.187779,-13.048757 17.930442,-25.214322 28.730088,-36.201396 9.605004,-9.771694 31.754856,-26.104551 31.754856,-26.104551 l 0.180114,34.02797 c 0,0 -21.267874,15.98276 -30.096455,25.81902 -9.128885,10.170857 -16.67313,21.798277 -23.188908,33.810627 -6.38308,11.7677 -11.846468,24.18829 -15.374365,37.10166 -3.471369,12.70642 -5.050294,25.9631 -5.534772,39.12592 -0.431494,11.72323 0.500146,23.53087 2.354388,35.11467 1.76781,11.04387 4.584097,21.96327 8.317611,32.50657 2.690339,7.59745 6.203646,14.91203 10.083398,21.97691 4.904587,8.93105 10.246531,17.70232 16.604315,25.66534 9.2008449,11.52393 30.902472,31.65903 30.902472,31.65903 z"
   style="fill:#5a696e;fill-opacity:1;stroke:none;stroke-width:0.75px;stroke-linecap:butt;stroke-linejoin:miter;stroke-opacity:1" /><path
   sodipodi:nodetypes="ccaasaaasaaaacaaaaaaaaaaaac"
   inkscape:connector-curvature="0"
   id="path1066"
   d="m 137.22073,358.67643 0.30749,31.35167 c 0,0 20.08502,-2.34159 29.82627,-4.91791 11.72489,-3.10096 23.19503,-7.3602 34.13108,-12.60215 10.23903,-4.90784 19.97676,-10.91452 29.21129,-17.52004 10.58716,-7.57307 21.04366,-15.59812 29.82628,-25.20428 9.62991,-10.5329 17.4624,-22.68234 24.59898,-35.0401 6.44217,-11.1553 12.25738,-22.80877 16.29684,-35.0401 3.67378,-11.12408 5.68318,-22.79336 7.07221,-34.42536 1.3858,-11.60484 2.03806,-23.38084 1.22994,-35.0401 -0.98535,-14.21621 -3.52908,-28.389 -7.3797,-42.1096 -3.71702,-13.24458 -8.65257,-26.251 -15.06687,-38.42117 -4.84979,-9.20176 -10.68612,-17.982165 -17.52677,-25.819008 -14.31518,-16.399873 -48.58301,-43.646439 -48.58301,-43.646439 0,0 24.42621,21.589642 34.74607,34.117999 7.80622,9.476775 14.79135,19.762314 20.29417,30.736918 5.4188,10.80705 9.06783,22.46906 12.29949,34.118 2.40111,8.65511 4.1332,17.51883 5.22729,26.43374 1.27455,10.38525 1.99025,20.89837 1.53743,31.35168 -0.39381,9.09109 -1.57259,18.19845 -3.68985,27.0485 -2.47285,10.33639 -6.10998,20.42218 -10.45457,30.12219 -4.64982,10.38149 -10.15507,20.44364 -16.60431,29.81481 -6.0619,8.80835 -13.07056,16.99801 -20.60166,24.58955 -7.67938,7.741 -15.9593,14.97467 -24.90646,21.20849 -8.58378,5.98062 -17.81303,11.10279 -27.36638,15.36848 -8.99672,4.01713 -18.40838,7.195 -27.98134,9.52842 -8.66101,2.11113 -26.44391,3.99581 -26.44391,3.99581 z"
   style="fill:#5a696e;fill-opacity:1;stroke:none;stroke-width:0.75px;stroke-linecap:butt;stroke-linejoin:miter;stroke-opacity:1" /></g></svg>
