<?xml version="1.0" encoding="UTF-8" standalone="no"?>
<svg
   xmlns:dc="http://purl.org/dc/elements/1.1/"
   xmlns:cc="http://creativecommons.org/ns#"
   xmlns:rdf="http://www.w3.org/1999/02/22-rdf-syntax-ns#"
   xmlns:svg="http://www.w3.org/2000/svg"
   xmlns="http://www.w3.org/2000/svg"
   xmlns:sodipodi="http://sodipodi.sourceforge.net/DTD/sodipodi-0.dtd"
   xmlns:inkscape="http://www.inkscape.org/namespaces/inkscape"
   inkscape:version="1.0 (4035a4fb49, 2020-05-01)"
   sodipodi:docname="bsp.svg"
   viewBox="0 0 306.44446 136.56915"
   height="136.56915"
   width="306.44446"
   xml:space="preserve"
   id="svg2"
   version="1.1"><metadata
     id="metadata8"><rdf:RDF><cc:Work
         rdf:about=""><dc:format>image/svg+xml</dc:format><dc:type
           rdf:resource="http://purl.org/dc/dcmitype/StillImage" /><dc:title></dc:title></cc:Work></rdf:RDF></metadata><defs
     id="defs6" /><sodipodi:namedview
     fit-margin-bottom="0"
     fit-margin-right="0"
     fit-margin-left="0"
     fit-margin-top="0"
     inkscape:current-layer="g10"
     inkscape:window-maximized="1"
     inkscape:window-y="0"
     inkscape:window-x="0"
     inkscape:cy="146.80276"
     inkscape:cx="90.364486"
     inkscape:zoom="2.1266772"
     showgrid="false"
     id="namedview4"
     inkscape:window-height="1136"
     inkscape:window-width="1920"
     inkscape:pageshadow="2"
     inkscape:pageopacity="0"
     guidetolerance="10"
     gridtolerance="10"
     objecttolerance="10"
     borderopacity="1"
     bordercolor="#666666"
     pagecolor="#ffffff" /><g
     transform="matrix(1.3333333,0,0,-1.3333333,-71.078599,988.61218)"
     inkscape:label="HeAT"
     inkscape:groupmode="layer"
     id="g10"><g
       id="g3266"><g
         id="g20"
         transform="matrix(1.22847,0,0,1.22847,63.756007,703.51503)"><path
           d="m -8.50412,28.3468 h 187.0891"
           style="fill:none;stroke:#5a696e;stroke-width:0.09962;stroke-linecap:butt;stroke-linejoin:miter;stroke-miterlimit:10;stroke-dasharray:2.98883, 1.99255;stroke-dashoffset:0;stroke-opacity:1"
           id="path22" /></g><g
         id="g24"
         transform="matrix(1.22847,0,0,1.22847,63.756007,703.51503)"><path
           d="m -8.50412,9.35448 h 187.0891"
           style="fill:none;stroke:#5a696e;stroke-width:0.09962;stroke-linecap:butt;stroke-linejoin:miter;stroke-miterlimit:10;stroke-dasharray:2.98883, 1.99255;stroke-dashoffset:0;stroke-opacity:1"
           id="path26" /></g><g
         id="g28"
         transform="matrix(1.22847,0,0,1.22847,63.756007,703.51503)"><path
           d="m -8.50412,-9.35448 h 187.0891"
           style="fill:none;stroke:#5a696e;stroke-width:0.09962;stroke-linecap:butt;stroke-linejoin:miter;stroke-miterlimit:10;stroke-dasharray:2.98883, 1.99255;stroke-dashoffset:0;stroke-opacity:1"
           id="path30" /></g><g
         id="g32"
         transform="matrix(1.22847,0,0,1.22847,63.756007,703.51503)"><path
           d="m -8.50412,-28.3468 h 187.0891"
           style="fill:none;stroke:#5a696e;stroke-width:0.09962;stroke-linecap:butt;stroke-linejoin:miter;stroke-miterlimit:10;stroke-dasharray:2.98883, 1.99255;stroke-dashoffset:0;stroke-opacity:1"
           id="path34" /></g><g
         id="g36"
         transform="matrix(1.22847,0,0,1.22847,63.756007,703.51503)"><g
           id="g38"><path
             d="M -0.99626,-29.8883 H 0.99626 V 29.88831 H -0.99626 Z"
             style="fill:#000000;fill-opacity:1;fill-rule:nonzero;stroke:#000000;stroke-width:0.610516;stroke-linecap:butt;stroke-linejoin:miter;stroke-miterlimit:10;stroke-dasharray:none;stroke-opacity:1"
             id="path40" /></g><g
           id="g42"><g
             id="g44" /></g></g><g
         id="g46"
         transform="matrix(1.22847,0,0,1.22847,63.756007,703.51503)"><g
           id="g48"><path
             d="m 84.04416,-29.8883 h 1.99252 v 59.77661 h -1.99252 z"
             style="fill:#000000;fill-opacity:1;fill-rule:nonzero;stroke:#000000;stroke-width:0.610516;stroke-linecap:butt;stroke-linejoin:miter;stroke-miterlimit:10;stroke-dasharray:none;stroke-opacity:1"
             id="path50" /></g><g
           id="g52"
           transform="translate(85.039)"><g
             id="g54" /><g
             id="g56"
             transform="translate(-85.039)" /></g></g><g
         id="g58"
         transform="matrix(1.22847,0,0,1.22847,63.756007,703.51503)"><g
           id="g60"><path
             d="m 169.0846,-29.8883 h 1.99252 v 59.77661 h -1.99252 z"
             style="fill:#000000;fill-opacity:1;fill-rule:nonzero;stroke:#000000;stroke-width:0.610516;stroke-linecap:butt;stroke-linejoin:miter;stroke-miterlimit:10;stroke-dasharray:none;stroke-opacity:1"
             id="path62" /></g><g
           id="g64"
           transform="translate(170.078)"><g
             id="g66" /><g
             id="g68"
             transform="translate(-170.078)" /></g></g><g
         id="g70"
         transform="matrix(1.22847,0,0,1.22847,63.756007,703.51503)"><g
           id="g72"
           transform="translate(-4.426,-39.595)"><g
             id="g74"><g
               id="g76"
               transform="translate(-56.579,-651.319)"><text
                 transform="matrix(1,0,0,-1,56.579,651.319)"
                 style="font-variant:normal;font-size:4.9813px;font-family:'Nimbus Roman';-inkscape-font-specification:NimbusRomNo9L-ReguItal;writing-mode:lr-tb;fill:#000000;fill-opacity:1;fill-rule:nonzero;stroke:none"
                 id="text80"><tspan
                   x="0 1.9377257 4.1494231 6.6400728"
                   y="0"
                   sodipodi:role="line"
                   id="tspan78">sync</tspan></text><g
                 id="g82"
                 transform="translate(56.579,651.319)" /></g></g><g
             id="g84"
             transform="translate(4.426,39.595)" /></g></g><g
         id="g86"
         transform="matrix(1.22847,0,0,1.22847,63.756007,703.51503)"><g
           id="g88"
           transform="translate(80.613,-39.595)"><g
             id="g90"><g
               id="g92"
               transform="translate(-141.618,-651.319)"><text
                 transform="matrix(1,0,0,-1,141.618,651.319)"
                 style="font-variant:normal;font-size:4.9813px;font-family:'Nimbus Roman';-inkscape-font-specification:NimbusRomNo9L-ReguItal;writing-mode:lr-tb;fill:#000000;fill-opacity:1;fill-rule:nonzero;stroke:none"
                 id="text96"><tspan
                   x="0 1.9377257 4.1494231 6.6400728"
                   y="0"
                   sodipodi:role="line"
                   id="tspan94">sync</tspan></text><g
                 id="g98"
                 transform="translate(141.618,651.319)" /></g></g><g
             id="g100"
             transform="translate(-80.613,39.595)" /></g></g><g
         id="g102"
         transform="matrix(1.22847,0,0,1.22847,63.756007,703.51503)"><g
           id="g104"
           transform="translate(165.653,-39.595)"><g
             id="g106"><g
               id="g108"
               transform="translate(-226.658,-651.319)"><text
                 transform="matrix(1,0,0,-1,226.658,651.319)"
                 style="font-variant:normal;font-size:4.9813px;font-family:'Nimbus Roman';-inkscape-font-specification:NimbusRomNo9L-ReguItal;writing-mode:lr-tb;fill:#000000;fill-opacity:1;fill-rule:nonzero;stroke:none"
                 id="text112"><tspan
                   x="0 1.9377257 4.1494231 6.6400728"
                   y="0"
                   sodipodi:role="line"
                   id="tspan110">sync</tspan></text><g
                 id="g114"
                 transform="translate(226.658,651.319)" /></g></g><g
             id="g116"
             transform="translate(-165.653,39.595)" /></g></g><g
         id="g118"
         transform="matrix(1.22847,0,0,1.22847,63.756007,703.51503)"><g
           id="g120"
           transform="translate(30.722,-40.026)"><g
             id="g122"><g
               id="g124"
               transform="translate(-91.727,-650.888)"><text
                 transform="matrix(1,0,0,-1,91.727,650.888)"
                 style="font-variant:normal;font-size:4.9813px;font-family:'Nimbus Roman';-inkscape-font-specification:NimbusRomNo9L-ReguItal;writing-mode:lr-tb;fill:#000000;fill-opacity:1;fill-rule:nonzero;stroke:none"
                 id="text128"><tspan
                   x="0 1.9377257 4.4283757 6.9190259 9.130723 11.018636 12.956362 14.341163 16.55286"
                   y="0"
                   sodipodi:role="line"
                   id="tspan126">superstep</tspan></text><text
                 transform="matrix(1,0,0,-1,112.514,650.888)"
                 style="font-variant:normal;font-weight:normal;font-size:6.51217px;font-family:CMMI5;-inkscape-font-specification:CMMI5;writing-mode:lr-tb;fill:#000000;fill-opacity:1;fill-rule:nonzero;stroke:none"
                 id="text132"><tspan
                   x="0"
                   y="0"
                   id="tspan130"
                   style="font-style:italic;font-variant:normal;font-weight:normal;font-stretch:normal;font-size:6.51217px;font-family:'Nimbus Roman';-inkscape-font-specification:'Nimbus Roman, Italic'">t</tspan></text><g
                 id="g134"
                 transform="translate(91.727,650.888)" /></g></g><g
             id="g136"
             transform="translate(-30.722,40.026)" /></g></g><text
         transform="scale(1,-1)"
         style="font-variant:normal;font-size:6.11938px;font-family:'Nimbus Roman';-inkscape-font-specification:NimbusRomNo9L-ReguItal;writing-mode:lr-tb;fill:#000000;fill-opacity:1;fill-rule:nonzero;stroke:none;stroke-width:1.22847"
         id="text148"
         x="198.7366"
         y="-654.18707"><tspan
           x="198.7366 201.11705 204.17674 207.23642 209.95343 212.27267 214.65311 216.35429 219.0713"
           y="-654.18707"
           sodipodi:role="line"
           id="tspan146"
           style="stroke-width:1.22847">superstep</tspan></text><text
         transform="scale(1,-1)"
         style="font-variant:normal;font-weight:normal;font-size:8.00001px;font-family:CMMI5;-inkscape-font-specification:CMMI5;writing-mode:lr-tb;fill:#000000;fill-opacity:1;fill-rule:nonzero;stroke:none;stroke-width:1.22847"
         id="text152"
         x="224.27283"
         y="-654.18707"><tspan
           x="224.27283"
           y="-654.18707"
           id="tspan150"
           style="font-style:italic;font-variant:normal;font-weight:normal;font-stretch:normal;font-size:8.00001px;font-family:'Nimbus Roman';-inkscape-font-specification:'Nimbus Roman,  Italic';stroke-width:1.22847">t+<tspan
   style="font-size:7px"
   id="tspan3034">1</tspan></tspan></text><g
         id="g158"
         transform="matrix(1.22847,0,0,1.22847,198.73661,654.18705)" /><g
         id="g162"
         transform="matrix(1.22847,0,0,1.22847,63.756007,703.51503)"><g
           id="g164"><path
             d="m 2.88466,25.85611 h 68.0322 v 4.98138 H 2.88466 Z"
             style="fill:#a6c5de;fill-opacity:1;fill-rule:nonzero;stroke:#005aa0;stroke-width:0.09962;stroke-linecap:butt;stroke-linejoin:miter;stroke-miterlimit:10;stroke-dasharray:none;stroke-opacity:1"
             id="path166" /></g><g
           id="g168"
           transform="translate(36.9,28.346)"><g
             id="g170" /><g
             id="g172"
             transform="translate(-36.9,-28.346)" /></g></g><g
         id="g174"
         transform="matrix(1.22847,0,0,1.22847,63.756007,703.51503)"><g
           id="g176"><path
             d="m 2.88466,6.86378 h 79.37117 v 4.98138 H 2.88466 Z"
             style="fill:#a6c5de;fill-opacity:1;fill-rule:nonzero;stroke:#005aa0;stroke-width:0.09962;stroke-linecap:butt;stroke-linejoin:miter;stroke-miterlimit:10;stroke-dasharray:none;stroke-opacity:1"
             id="path178" /></g><g
           id="g180"
           transform="translate(42.569,9.354)"><g
             id="g182" /><g
             id="g184"
             transform="translate(-42.569,-9.354)" /></g></g><g
         id="g186"
         transform="matrix(1.22847,0,0,1.22847,63.756007,703.51503)"><g
           id="g188"><path
             d="m 2.88466,-11.84517 h 22.67752 v 4.98138 H 2.88466 Z"
             style="fill:#a6c5de;fill-opacity:1;fill-rule:nonzero;stroke:#005aa0;stroke-width:0.09962;stroke-linecap:butt;stroke-linejoin:miter;stroke-miterlimit:10;stroke-dasharray:none;stroke-opacity:1"
             id="path190" /></g><g
           id="g192"
           transform="translate(14.223,-9.355)"><g
             id="g194" /><g
             id="g196"
             transform="translate(-14.223,9.355)" /></g></g><g
         id="g198"
         transform="matrix(1.22847,0,0,1.22847,63.756007,703.51503)"><g
           id="g200"><path
             d="m 56.74342,-11.84517 h 8.5041 v 4.98138 h -8.5041 z"
             style="fill:#a6c5de;fill-opacity:1;fill-rule:nonzero;stroke:#005aa0;stroke-width:0.09962;stroke-linecap:butt;stroke-linejoin:miter;stroke-miterlimit:10;stroke-dasharray:none;stroke-opacity:1"
             id="path202" /></g><g
           id="g204"
           transform="translate(60.994,-9.355)"><g
             id="g206" /><g
             id="g208"
             transform="translate(-60.994,9.355)" /></g></g><g
         id="g210"
         transform="matrix(1.22847,0,0,1.22847,63.756007,703.51503)"><g
           id="g212"><path
             d="m 2.88466,-30.8375 h 28.34679 v 4.98138 H 2.88466 Z"
             style="fill:#a6c5de;fill-opacity:1;fill-rule:nonzero;stroke:#005aa0;stroke-width:0.09962;stroke-linecap:butt;stroke-linejoin:miter;stroke-miterlimit:10;stroke-dasharray:none;stroke-opacity:1"
             id="path214" /></g><g
           id="g216"
           transform="translate(17.058,-28.347)"><g
             id="g218" /><g
             id="g220"
             transform="translate(-17.058,28.347)" /></g></g><g
         id="g222"
         transform="matrix(1.22847,0,0,1.22847,63.756007,703.51503)"><g
           id="g224"><path
             d="m 59.57828,-30.8375 h 17.00824 v 4.98138 H 59.57828 Z"
             style="fill:#a6c5de;fill-opacity:1;fill-rule:nonzero;stroke:#005aa0;stroke-width:0.09962;stroke-linecap:butt;stroke-linejoin:miter;stroke-miterlimit:10;stroke-dasharray:none;stroke-opacity:1"
             id="path226" /></g><g
           id="g228"
           transform="translate(68.081,-28.347)"><g
             id="g230" /><g
             id="g232"
             transform="translate(-68.081,28.347)" /></g></g><g
         id="g234"
         transform="matrix(1.22847,0,0,1.22847,63.756007,703.51503)"><g
           id="g236"><path
             d="m 87.9251,25.85611 h 45.35507 v 4.98138 H 87.9251 Z"
             style="fill:#a6c5de;fill-opacity:1;fill-rule:nonzero;stroke:#005aa0;stroke-width:0.09962;stroke-linecap:butt;stroke-linejoin:miter;stroke-miterlimit:10;stroke-dasharray:none;stroke-opacity:1"
             id="path238" /></g><g
           id="g240"
           transform="translate(110.601,28.346)"><g
             id="g242" /><g
             id="g244"
             transform="translate(-110.601,-28.346)" /></g></g><g
         id="g246"
         transform="matrix(1.22847,0,0,1.22847,63.756007,703.51503)"><g
           id="g248"><path
             d="m 153.1224,25.85611 h 14.17337 v 4.98138 H 153.1224 Z"
             style="fill:#a6c5de;fill-opacity:1;fill-rule:nonzero;stroke:#005aa0;stroke-width:0.09962;stroke-linecap:butt;stroke-linejoin:miter;stroke-miterlimit:10;stroke-dasharray:none;stroke-opacity:1"
             id="path250" /></g><g
           id="g252"
           transform="translate(160.207,28.346)"><g
             id="g254" /><g
             id="g256"
             transform="translate(-160.207,-28.346)" /></g></g><g
         id="g258"
         transform="matrix(1.22847,0,0,1.22847,63.756007,703.51503)"><g
           id="g260"><path
             d="m 87.9251,6.86378 h 28.34679 v 4.98138 H 87.9251 Z"
             style="fill:#a6c5de;fill-opacity:1;fill-rule:nonzero;stroke:#005aa0;stroke-width:0.09962;stroke-linecap:butt;stroke-linejoin:miter;stroke-miterlimit:10;stroke-dasharray:none;stroke-opacity:1"
             id="path262" /></g><g
           id="g264"
           transform="translate(102.097,9.354)"><g
             id="g266" /><g
             id="g268"
             transform="translate(-102.097,-9.354)" /></g></g><g
         id="g270"
         transform="matrix(1.22847,0,0,1.22847,63.756007,703.51503)"><g
           id="g272"><path
             d="m 144.61871,6.86378 h 22.67752 v 4.98138 h -22.67752 z"
             style="fill:#a6c5de;fill-opacity:1;fill-rule:nonzero;stroke:#005aa0;stroke-width:0.09962;stroke-linecap:butt;stroke-linejoin:miter;stroke-miterlimit:10;stroke-dasharray:none;stroke-opacity:1"
             id="path274" /></g><g
           id="g276"
           transform="translate(155.955,9.354)"><g
             id="g278" /><g
             id="g280"
             transform="translate(-155.955,-9.354)" /></g></g><g
         id="g282"
         transform="matrix(1.22847,0,0,1.22847,63.756007,703.51503)"><g
           id="g284"><path
             d="m 87.9251,-11.84517 h 14.17337 v 4.98138 H 87.9251 Z"
             style="fill:#a6c5de;fill-opacity:1;fill-rule:nonzero;stroke:#005aa0;stroke-width:0.09962;stroke-linecap:butt;stroke-linejoin:miter;stroke-miterlimit:10;stroke-dasharray:none;stroke-opacity:1"
             id="path286" /></g><g
           id="g288"
           transform="translate(95.01,-9.355)"><g
             id="g290" /><g
             id="g292"
             transform="translate(-95.01,9.355)" /></g></g><g
         id="g294"
         transform="matrix(1.22847,0,0,1.22847,63.756007,703.51503)"><g
           id="g296"><path
             d="m 136.11456,-11.84517 h 22.67752 v 4.98138 h -22.67752 z"
             style="fill:#a6c5de;fill-opacity:1;fill-rule:nonzero;stroke:#005aa0;stroke-width:0.09962;stroke-linecap:butt;stroke-linejoin:miter;stroke-miterlimit:10;stroke-dasharray:none;stroke-opacity:1"
             id="path298" /></g><g
           id="g300"
           transform="translate(147.451,-9.355)"><g
             id="g302" /><g
             id="g304"
             transform="translate(-147.451,9.355)" /></g></g><g
         id="g306"
         transform="matrix(1.22847,0,0,1.22847,63.756007,703.51503)"><g
           id="g308"><path
             d="m 87.9251,-30.8375 h 65.19775 v 4.98138 H 87.9251 Z"
             style="fill:#a6c5de;fill-opacity:1;fill-rule:nonzero;stroke:#005aa0;stroke-width:0.09962;stroke-linecap:butt;stroke-linejoin:miter;stroke-miterlimit:10;stroke-dasharray:none;stroke-opacity:1"
             id="path310" /></g><g
           id="g312"
           transform="translate(120.522,-28.347)"><g
             id="g314" /><g
             id="g316"
             transform="translate(-120.522,28.347)" /></g></g><g
         id="g318"
         transform="matrix(1.22847,0,0,1.22847,63.756007,703.51503)"><path
           d="M 27.35791,-10.33209 56.03665,-26.39142"
           style="fill:none;stroke:#005aa0;stroke-width:0.3985;stroke-linecap:butt;stroke-linejoin:miter;stroke-miterlimit:10;stroke-dasharray:none;stroke-opacity:1"
           id="path320" /><g
           id="g322"
           transform="matrix(0.87622,-0.49068,0.49068,0.87622,56.03665,-26.39142)"><g
             id="g324"><path
               d="M 1.99252,0 -1.19551,1.59401 0,0 -1.19551,-1.59401"
               style="fill:#005aa0;fill-opacity:1;fill-rule:nonzero;stroke:none"
               id="path326" /></g></g></g><g
         id="g328"
         transform="matrix(1.22847,0,0,1.22847,63.756007,703.51503)"><path
           d="m 32.88298,-27.14967 20.60724,15.40109"
           style="fill:none;stroke:#005aa0;stroke-width:0.3985;stroke-linecap:butt;stroke-linejoin:miter;stroke-miterlimit:10;stroke-dasharray:none;stroke-opacity:1"
           id="path330" /><g
           id="g332"
           transform="matrix(0.80385,0.60077,-0.60077,0.80385,53.49022,-11.7486)"><g
             id="g334"><path
               d="M 1.99252,0 -1.19551,1.59401 0,0 -1.19551,-1.59401"
               style="fill:#005aa0;fill-opacity:1;fill-rule:nonzero;stroke:none"
               id="path336" /></g></g></g><g
         id="g338"
         transform="matrix(1.22847,0,0,1.22847,63.756007,703.51503)"><path
           d="M 134.34557,26.63068 142.53793,12.7867"
           style="fill:none;stroke:#005aa0;stroke-width:0.3985;stroke-linecap:butt;stroke-linejoin:miter;stroke-miterlimit:10;stroke-dasharray:none;stroke-opacity:1"
           id="path340" /><g
           id="g342"
           transform="matrix(0.50964,-0.86127,0.86127,0.50964,142.53792,12.78671)"><g
             id="g344"><path
               d="M 1.99252,0 -1.19551,1.59401 0,0 -1.19551,-1.59401"
               style="fill:#005aa0;fill-opacity:1;fill-rule:nonzero;stroke:none"
               id="path346" /></g></g></g><g
         id="g348"
         transform="matrix(1.22847,0,0,1.22847,63.756007,703.51503)"><path
           d="m 118.09674,10.27184 31.4258,16.2404"
           style="fill:none;stroke:#005aa0;stroke-width:0.3985;stroke-linecap:butt;stroke-linejoin:miter;stroke-miterlimit:10;stroke-dasharray:none;stroke-opacity:1"
           id="path350" /><g
           id="g352"
           transform="matrix(0.89084,0.46036,-0.46036,0.89084,149.52254,26.51224)"><g
             id="g354"><path
               d="M 1.99252,0 -1.19551,1.59401 0,0 -1.19551,-1.59401"
               style="fill:#005aa0;fill-opacity:1;fill-rule:nonzero;stroke:none"
               id="path356" /></g></g></g><g
         id="g358"
         transform="matrix(1.22847,0,0,1.22847,63.756007,703.51503)"><path
           d="M 117.77351,7.97873 133.16115,-6.60295"
           style="fill:none;stroke:#005aa0;stroke-width:0.3985;stroke-linecap:butt;stroke-linejoin:miter;stroke-miterlimit:10;stroke-dasharray:none;stroke-opacity:1"
           id="path360" /><g
           id="g362"
           transform="matrix(0.72862,-0.69046,0.69046,0.72862,133.16115,-6.60295)"><g
             id="g364"><path
               d="M 1.99252,0 -1.19551,1.59401 0,0 -1.19551,-1.59401"
               style="fill:#005aa0;fill-opacity:1;fill-rule:nonzero;stroke:none"
               id="path366" /></g></g></g><g
         id="g368"
         transform="matrix(1.22847,0,0,1.22847,63.756007,703.51503)"><path
           d="M 103.97209,-8.55008 140.9213,7.74564"
           style="fill:none;stroke:#005aa0;stroke-width:0.3985;stroke-linecap:butt;stroke-linejoin:miter;stroke-miterlimit:10;stroke-dasharray:none;stroke-opacity:1"
           id="path370" /><g
           id="g372"
           transform="matrix(0.91531,0.40372,-0.40372,0.91531,140.9213,7.74564)"><g
             id="g374"><path
               d="M 1.99252,0 -1.19551,1.59401 0,0 -1.19551,-1.59401"
               style="fill:#005aa0;fill-opacity:1;fill-rule:nonzero;stroke:none"
               id="path376" /></g></g></g><g
         id="g378"
         transform="matrix(1.22847,0,0,1.22847,63.756007,703.51503)"><path
           d="M 103.75,-8.16861 149.8692,25.9752"
           style="fill:none;stroke:#005aa0;stroke-width:0.3985;stroke-linecap:butt;stroke-linejoin:miter;stroke-miterlimit:10;stroke-dasharray:none;stroke-opacity:1"
           id="path380" /><g
           id="g382"
           transform="matrix(0.80385,0.59512,-0.59512,0.80385,149.8692,25.97519)"><g
             id="g384"><path
               d="M 1.99252,0 -1.19551,1.59401 0,0 -1.19551,-1.59401"
               style="fill:#005aa0;fill-opacity:1;fill-rule:nonzero;stroke:none"
               id="path386" /></g></g></g><g
         id="g388"
         transform="matrix(1.22847,0,0,1.22847,63.756007,703.51503)"><g
           id="g390"><path
             d="m 36.85092,-52.44048 h 11.33855 v 4.98138 H 36.85092 Z"
             style="fill:#a6c5de;fill-opacity:1;fill-rule:nonzero;stroke:#005aa0;stroke-width:0.09962;stroke-linecap:butt;stroke-linejoin:miter;stroke-miterlimit:10;stroke-dasharray:none;stroke-opacity:1"
             id="path392" /></g><g
           id="g394"
           transform="translate(42.519,-49.95)"><g
             id="g396" /><g
             id="g398"
             transform="translate(-42.519,49.95)" /></g></g><g
         id="g400"
         transform="matrix(1.22847,0,0,1.22847,63.756007,703.51503)"><g
           id="g402"
           transform="translate(53.176,-50.805)"><g
             id="g404"><g
               id="g406"
               transform="translate(-114.181,-640.109)"><text
                 transform="matrix(1,0,0,-1,114.181,640.109)"
                 style="font-variant:normal;font-size:4.9813px;font-family:'Nimbus Roman';-inkscape-font-specification:NimbusRomNo9L-ReguItal;writing-mode:lr-tb;fill:#000000;fill-opacity:1;fill-rule:nonzero;stroke:none"
                 id="text410"><tspan
                   x="0 2.2116971 4.7023473 8.2988462 10.789495 13.280146 14.664948"
                   y="0"
                   sodipodi:role="line"
                   id="tspan408">compute</tspan></text><g
                 id="g412"
                 transform="translate(114.181,640.109)" /></g></g><g
             id="g414"
             transform="translate(-53.176,50.805)" /></g></g><g
         id="g416"
         transform="matrix(1.22847,0,0,1.22847,63.756007,703.51503)"><g
           id="g418"><path
             d="M 79.37115,-52.00937 H 90.7097 v 4.98138 H 79.37115 Z"
             style="fill:#a6c5de;fill-opacity:0;fill-rule:nonzero;stroke:#005aa0;stroke-width:0.09962;stroke-linecap:butt;stroke-linejoin:miter;stroke-miterlimit:10;stroke-dasharray:none;stroke-opacity:0"
             id="path420" /></g><g
           id="g422"
           transform="translate(85.039,-49.518)"><g
             id="g424" /><g
             id="g426"
             transform="translate(-85.039,49.518)" /></g></g><g
         id="g428"
         transform="matrix(1.22847,0,0,1.22847,63.756007,703.51503)"><path
           d="m 81.31389,-49.51868 h 5.46054"
           style="fill:none;stroke:#005aa0;stroke-width:0.3985;stroke-linecap:butt;stroke-linejoin:miter;stroke-miterlimit:10;stroke-dasharray:none;stroke-opacity:1"
           id="path430" /><g
           id="g432"
           transform="translate(86.77443,-49.51868)"><g
             id="g434"><path
               d="M 1.99252,0 -1.19551,1.59401 0,0 -1.19551,-1.59401"
               style="fill:#005aa0;fill-opacity:1;fill-rule:nonzero;stroke:none"
               id="path436" /></g></g></g><g
         id="g438"
         transform="matrix(1.22847,0,0,1.22847,63.756007,703.51503)"><g
           id="g440"
           transform="translate(95.695,-51.132)"><g
             id="g442"><g
               id="g444"
               transform="translate(-156.7,-639.782)"><text
                 transform="matrix(1,0,0,-1,156.7,639.782)"
                 style="font-variant:normal;font-size:4.9813px;font-family:'Nimbus Roman';-inkscape-font-specification:NimbusRomNo9L-ReguItal;writing-mode:lr-tb;fill:#000000;fill-opacity:1;fill-rule:nonzero;stroke:none"
                 id="text448"><tspan
                   x="0 2.2116971 4.7023473 8.2988462 11.895345 14.385994 16.876644 18.261446 20.473143 22.963793 24.348595 25.733397 28.224047"
                   y="0"
                   sodipodi:role="line"
                   id="tspan446">communication</tspan></text><g
                 id="g450"
                 transform="translate(156.7,639.782)" /></g></g><g
             id="g452"
             transform="translate(-95.695,51.132)" /></g></g><g
         id="g454"
         transform="matrix(1.22847,0,0,1.22847,48.964,635.76)" /></g></g></svg>
