<?xml version="1.0" encoding="UTF-8" standalone="no"?>
<!-- Created with Inkscape (http://www.inkscape.org/) -->
<svg xmlns:svg="http://www.w3.org/2000/svg" xmlns="http://www.w3.org/2000/svg" version="1.0" width="744.09448" height="621.8504" id="svg7217">
  <defs id="defs7219"/>
  <g transform="translate(-2112.292,1515.3408)" id="layer1">
    <g transform="matrix(3.5989788,0,0,3.5989788,-5472.0856,2431.6437)" id="g13322">
      <path d="M 434.28125,67.4375 L 380.25,121.75 L 334.40625,121.75 L 290.75,165.40625 L 344.15625,165.40625 L 344.15625,219.71875 L 398.46875,165.40625 L 444,165.40625 L 487.65625,121.75 L 434.28125,121.75 L 434.28125,67.4375 z M 423.28125,93.8125 L 423.28125,121.75 L 395.3125,121.75 L 423.28125,93.8125 z M 338.8125,132.75 L 369.28125,132.75 L 347.59375,154.40625 L 317.15625,154.40625 L 338.8125,132.75 z M 384.96875,132.75 L 415.4375,132.75 L 393.4375,154.40625 L 363,154.40625 L 384.96875,132.75 z M 430.8125,132.75 L 461.28125,132.75 L 439.59375,154.40625 L 409.15625,154.40625 L 430.8125,132.75 z M 383.09375,165.09375 L 355.15625,193.03125 L 355.15625,165.40625 L 383.09375,165.09375 z " transform="translate(1821.542,-1159.2251)" style="fill:#231f20;fill-rule:evenodd;stroke:none" id="path13300"/>
      <path d="M 398.15625,198.09375 L 398.15625,230.40625 L 407.28125,230.40625 C 417.00574,230.40624 425.8125,227.28537 425.8125,214.40625 C 425.81249,201.20879 417.00575,198.09375 407.28125,198.09375 L 398.15625,198.09375 z M 404.75,203.09375 L 408.53125,203.09375 C 413.88546,203.09375 419.1875,207.1708 419.1875,214.40625 C 419.18751,221.32336 413.88545,225.40625 408.53125,225.40625 L 404.75,225.40625 L 404.75,203.09375 z " transform="translate(1821.542,-1159.2251)" style="fill:#231f20;fill-rule:evenodd;stroke:none" id="path13304"/>
      <path d="M 470.75,198.03125 C 469.99028,198.0105 469.24525,198.05396 468.5,198.09375 L 456.875,198.09375 L 456.875,230.40625 L 463.46875,230.40625 L 463.46875,218.46875 L 464.40625,218.46875 L 468.1875,218.46875 C 470.99481,218.46875 471.9489,219.41956 472.875,221.9375 L 476.375,230.40625 L 484.21875,230.40625 L 478.875,219.125 C 477.91991,217.24378 477.59415,216.61133 476.03125,215.65625 C 476.03126,215.65625 481.6934,214.09287 481.375,207.8125 C 481.37499,200.11397 476.06805,198.17647 470.75,198.03125 z M 463.46875,203.40625 L 467.875,203.40625 C 471.3191,203.40625 474.1481,204.36842 474.4375,207.8125 L 474.4375,208.71875 C 474.14811,212.19176 471.3191,213.125 467.875,213.125 L 463.46875,213.125 L 463.46875,203.40625 z " transform="translate(1821.542,-1159.2251)" style="fill:#231f20;fill-rule:evenodd;stroke:none" id="path13312"/>
      <path d="M 2253.9408,-928.81852 L 2273.1003,-928.81852 L 2273.1003,-934.14382 L 2260.5106,-934.14382 L 2260.5106,-961.14655 L 2253.9408,-961.14655 L 2253.9408,-928.81852 z " style="fill:#231f20;fill-rule:evenodd;stroke:none" id="path13308"/>
    </g>
  </g>
</svg>
