<?xml version="1.0" encoding="UTF-8" standalone="no"?>
<!-- Created with Inkscape (http://www.inkscape.org/) -->

<svg
   width="57mm"
   height="55.185368mm"
   viewBox="0 0 57.000002 55.185368"
   version="1.1"
   id="svg5"
   xml:space="preserve"
   inkscape:version="1.2.2 (b0a8486541, 2022-12-01)"
   sodipodi:docname="logo.svg"
   xmlns:inkscape="http://www.inkscape.org/namespaces/inkscape"
   xmlns:sodipodi="http://sodipodi.sourceforge.net/DTD/sodipodi-0.dtd"
   xmlns="http://www.w3.org/2000/svg"
   xmlns:svg="http://www.w3.org/2000/svg"><sodipodi:namedview
     id="namedview7"
     pagecolor="#505050"
     bordercolor="#eeeeee"
     borderopacity="1"
     inkscape:showpageshadow="0"
     inkscape:pageopacity="0"
     inkscape:pagecheckerboard="0"
     inkscape:deskcolor="#505050"
     inkscape:document-units="mm"
     showgrid="false"
     inkscape:zoom="1.2368489"
     inkscape:cx="116.42489"
     inkscape:cy="197.27551"
     inkscape:window-width="1902"
     inkscape:window-height="976"
     inkscape:window-x="5"
     inkscape:window-y="892"
     inkscape:window-maximized="1"
     inkscape:current-layer="layer1" /><defs
     id="defs2" /><g
     inkscape:label="Layer 1"
     inkscape:groupmode="layer"
     id="layer1"
     transform="translate(-21.508291,-109.02316)"><g
       id="g1801"><circle
         style="fill:#8cb423;fill-opacity:1;stroke-width:0.264583"
         id="path231"
         cx="50.063343"
         cy="136.61584"
         r="2.5926795" /><path
         id="path447"
         style="fill:#005aa0;fill-opacity:1;stroke-width:0.296897"
         inkscape:transform-center-y="0.017822118"
         d="M 62.557928,162.37462 56.310765,151.6161 50.0636,140.85706 43.81592,151.6161 37.568757,162.37462 h 5.139738 a 7.3572302,7.3572302 0 0 1 -0.0021,-0.1323 7.3572302,7.3572302 0 0 1 7.357172,-7.35717 7.3572302,7.3572302 0 0 1 7.357174,7.35717 7.3572302,7.3572302 0 0 1 -0.0057,0.1323 z"
         inkscape:transform-center-x="-3.5862785" /><path
         id="path447-9"
         style="fill:#005aa0;fill-opacity:1;stroke-width:0.296897"
         d="m 78.618394,138.6746 -12.440734,0.0309 -12.441184,0.0307 6.193762,10.79017 6.193569,10.78946 2.56987,-4.45114 a 7.3572302,7.3572302 0 0 1 -0.115567,-0.0644 7.3572302,7.3572302 0 0 1 -2.692918,-10.05009 7.3572302,7.3572302 0 0 1 10.050092,-2.6929 7.3572302,7.3572302 0 0 1 0.111716,0.0711 z"
         inkscape:transform-center-x="3.586223" /><path
         id="path447-1"
         style="fill:#005aa0;fill-opacity:1;stroke-width:0.296897"
         inkscape:transform-center-y="0.017951275"
         d="m 34.002876,160.31586 6.19357,-10.78946 6.194021,-10.78972 -12.441442,-0.0311 -12.440734,-0.0309 2.569869,4.45115 a 7.3572302,7.3572302 0 0 1 0.113577,-0.0679 7.3572302,7.3572302 0 0 1 10.050083,2.69291 7.3572302,7.3572302 0 0 1 -2.69291,10.05008 7.3572302,7.3572302 0 0 1 -0.117425,0.0612 z"
         inkscape:transform-center-x="3.5862786" /><path
         id="path447-7"
         style="fill:#005aa0;fill-opacity:1;stroke-width:0.296897"
         d="m 21.508292,134.55708 12.440734,-0.0309 12.441184,-0.0307 -6.193762,-10.79017 -6.193569,-10.78946 -2.56987,4.45115 a 7.3572302,7.3572302 0 0 1 0.115575,0.0644 7.3572302,7.3572302 0 0 1 2.69291,10.05009 7.3572302,7.3572302 0 0 1 -10.050083,2.69291 7.3572302,7.3572302 0 0 1 -0.111725,-0.0711 z"
         inkscape:transform-center-x="-3.5862228" /><path
         id="path447-2"
         style="fill:#005aa0;fill-opacity:1;stroke-width:0.296897"
         inkscape:transform-center-y="-0.017820934"
         d="m 37.568759,110.85707 6.247162,10.75851 6.247163,10.75904 6.247683,-10.75904 6.247165,-10.75851 h -5.139739 a 7.3572302,7.3572302 0 0 1 0.002,0.13229 7.3572302,7.3572302 0 0 1 -7.357174,7.35717 7.3572302,7.3572302 0 0 1 -7.357174,-7.35717 7.3572302,7.3572302 0 0 1 0.0057,-0.13229 z"
         inkscape:transform-center-x="3.5862753" /><path
         id="path447-3"
         style="fill:#005aa0;fill-opacity:1;stroke-width:0.296897"
         d="m 66.1238,112.91582 -6.19356,10.78946 -6.194019,10.78973 12.441443,0.0311 12.440725,0.031 -2.56987,-4.45114 a 7.3572302,7.3572302 0 0 1 -0.113565,0.0679 7.3572302,7.3572302 0 0 1 -10.050082,-2.69292 7.3572302,7.3572302 0 0 1 2.692908,-10.05008 7.3572302,7.3572302 0 0 1 0.117416,-0.0612 z"
         inkscape:transform-center-y="-0.017950184"
         inkscape:transform-center-x="-3.5862753" /><circle
         style="fill:#8cb423;fill-opacity:1;stroke-width:0.264583"
         id="path231-6"
         cx="93.281113"
         cy="-136.66405"
         r="2.5926795"
         transform="rotate(120)" /><circle
         style="fill:#8cb423;fill-opacity:1;stroke-width:0.264583"
         id="path231-5"
         cx="-50.063339"
         cy="-161.61584"
         r="2.5926795"
         transform="scale(-1)" /><circle
         style="fill:#8cb423;fill-opacity:1;stroke-width:0.264583"
         id="path231-9"
         cx="-143.34445"
         cy="-49.951794"
         r="2.5926795"
         transform="rotate(-120)" /><circle
         style="fill:#8cb423;fill-opacity:1;stroke-width:0.264583"
         id="path231-6-5"
         cx="-93.281097"
         cy="86.66407"
         r="2.5926795"
         transform="rotate(-59.999988)" /><circle
         style="fill:#8cb423;fill-opacity:1;stroke-width:0.264583"
         id="path231-5-4"
         cx="143.34445"
         cy="-0.048177384"
         r="2.5926795"
         transform="rotate(59.999988)" /><circle
         style="fill:#8cb423;fill-opacity:1;stroke-width:0.264583"
         id="path231-9-9"
         cx="50.063343"
         cy="111.61584"
         r="2.5926795" /></g><g
       aria-label="PERUN"
       id="text854"
       style="font-size:35.2778px;fill:#8cb423;stroke:#000000;stroke-width:0.264583" /></g></svg>
